<svg xmlns="http://www.w3.org/2000/svg" viewBox="0 0 640 360" width="640" height="360" role="img" aria-label="붓다의 깨달음과 첫 설법">
<defs>
  <clipPath id="frame-buddha-enlightenment"><rect x="10" y="10" width="620" height="340" rx="6"/></clipPath>
  <pattern id="waves-buddha-enlightenment" width="22" height="9" patternUnits="userSpaceOnUse">
    <path d="M0 5 C4 2 7 2 11 5 C15 8 18 8 22 5" fill="none" stroke="#6f8f8f" stroke-width="0.7" stroke-opacity="0.55"/>
  </pattern>
  <pattern id="hatch-buddha-enlightenment" width="6" height="6" patternUnits="userSpaceOnUse" patternTransform="rotate(35)">
    <path d="M0 0 L0 6" stroke="#3b2412" stroke-width="0.9" stroke-opacity="0.45"/>
  </pattern>
  <filter id="paper-buddha-enlightenment" x="0" y="0" width="100%" height="100%">
    <feTurbulence type="fractalNoise" baseFrequency="0.9" numOctaves="3" seed="241" result="noise"/>
    <feColorMatrix in="noise" type="matrix" values="0 0 0 0 0.45  0 0 0 0 0.33  0 0 0 0 0.18  0 0 0 0.22 0"/>
  </filter>
  <radialGradient id="vignette-buddha-enlightenment" cx="50%" cy="48%" r="70%">
    <stop offset="60%" stop-color="#3b2412" stop-opacity="0"/><stop offset="100%" stop-color="#3b2412" stop-opacity="0.45"/>
  </radialGradient>
  <filter id="glow-buddha-enlightenment"><feGaussianBlur stdDeviation="3"/></filter>
  <path id="land-buddha-enlightenment" d="M-24 -24L-24 201L-22 202L-21 199L-21 203L-19 204L-19 199L-19 203L-17 204L-20 206L-16 206L-14 204L-6 200L-14 206L-14 208L-13 208L-14 209L-12 210L-10 212L-12 213L-10 213L-9 216L2 222L12 225L14 222L21 221L20 219L26 220L26 218L28 217L28 220L25 221L21 229L17 229L14 232L12 231L10 233L8 231L7 234L2 235L2 232L-1 232L-1 231L-3 235L19 259L33 269L41 268L60 258L64 249L61 245L58 245L58 244L60 245L59 243L62 244L61 243L59 242L60 241L62 242L64 239L64 236L61 235L65 235L66 233L66 235L67 236L77 235L73 237L70 237L68 242L69 243L73 241L70 244L69 248L81 246L75 249L70 254L73 253L69 254L73 258L70 260L74 260L75 262L74 262L76 263L75 266L76 266L77 268L71 287L72 290L73 289L73 294L76 294L73 295L73 297L79 301L74 299L74 307L75 308L78 302L78 306L79 305L76 308L78 308L78 311L77 309L75 312L79 317L77 315L76 319L80 321L79 323L77 321L77 322L79 325L81 335L82 336L81 336L86 356L85 356L86 358L84 358L91 375L93 377L95 376L93 378L94 380L96 379L94 381L98 382L94 381L97 384L221 384L227 373L233 371L235 371L236 375L237 368L238 372L240 374L246 361L255 362L266 357L267 350L266 351L265 349L268 345L285 335L286 334L285 333L287 333L289 328L302 321L315 305L315 302L332 291L327 293L328 291L325 292L323 295L326 289L329 286L332 287L332 290L329 291L330 291L348 285L343 281L349 284L350 280L356 277L354 278L357 275L355 276L355 274L361 269L358 267L360 267L357 261L359 256L365 251L377 247L384 239L380 236L379 232L381 236L385 237L384 242L386 251L386 245L387 249L387 247L389 250L390 249L391 242L391 251L392 251L394 237L393 242L396 238L395 251L397 248L398 249L398 246L399 249L402 249L399 242L402 242L402 238L405 249L407 248L408 242L409 247L411 242L410 235L412 241L413 234L411 245L413 248L415 246L414 243L415 245L419 244L417 239L418 239L418 232L421 230L418 235L419 240L420 242L423 237L421 241L422 241L426 237L421 244L424 242L423 245L425 245L429 237L429 235L430 239L433 233L432 229L431 228L430 230L431 226L428 224L432 221L430 218L433 217L433 214L426 209L432 211L433 207L431 206L433 206L433 208L435 207L433 209L434 218L440 228L442 228L442 226L443 229L445 229L446 227L445 225L448 226L451 221L450 224L455 229L457 236L459 232L458 237L460 244L459 246L461 245L461 249L462 247L462 252L460 253L462 259L468 268L467 262L469 269L476 279L474 269L477 274L478 274L480 277L477 280L479 281L483 272L481 281L484 280L481 281L484 287L485 288L484 284L486 288L484 282L487 283L488 282L489 284L489 282L490 285L492 284L493 287L496 286L494 290L497 289L497 291L498 290L496 292L501 296L501 297L498 301L493 296L491 298L495 305L500 309L501 306L500 302L502 301L503 297L502 309L505 308L507 311L505 311L510 320L508 321L510 322L514 336L513 336L514 342L511 344L511 349L509 350L509 358L507 358L506 370L510 367L512 363L514 362L514 364L516 358L515 366L513 370L518 366L514 371L516 372L519 368L519 366L522 364L519 366L520 368L518 370L519 373L522 373L525 366L526 367L524 368L524 373L526 373L529 366L528 374L530 375L535 370L536 364L538 366L543 363L542 361L544 362L548 360L545 353L548 352L546 353L547 356L551 359L556 357L560 347L559 343L560 341L559 340L560 338L565 346L567 346L565 346L566 350L570 359L577 357L575 359L574 368L577 372L578 381L577 384L664 384L664 -24ZM382 248L383 249L384 244L382 248ZM392 245L394 246L394 243L392 245ZM402 243L403 247L402 243ZM427 243L429 241L427 243ZM429 242L431 242L430 240L429 242ZM430 211L433 213L430 211ZM430 224L431 225L435 223L432 222L430 224ZM431 240L432 240L432 241L433 237L431 240ZM431 244L433 241L431 244ZM431 220L434 221L433 218L431 220ZM432 226L435 231L434 241L438 238L438 232L434 224L432 226ZM433 232L434 234L433 232ZM440 236L441 233L440 236ZM441 238L442 239L445 236L443 232L441 238ZM450 230L452 232L451 228L450 230ZM458 247L459 242L458 247ZM458 248L459 252L461 252L460 246L458 248ZM480 283L482 288L480 283ZM490 285L492 290L492 287L490 285ZM491 308L494 312L497 312L496 308L491 308ZM494 295L498 300L501 298L496 294L494 295ZM571 360L573 365L574 359L571 360Z"/>
  <clipPath id="landclip-buddha-enlightenment"><use href="#land-buddha-enlightenment"/></clipPath>
  
</defs>
<rect width="640" height="360" rx="10" fill="#2a1a0c"/>
<g clip-path="url(#frame-buddha-enlightenment)">
  <rect width="640" height="360" fill="#b9ccc6"/>
  <rect width="640" height="360" fill="url(#waves-buddha-enlightenment)"/>
  <use href="#land-buddha-enlightenment" fill="none" stroke="#7e9c98" stroke-width="7" stroke-opacity="0.35" stroke-linejoin="round"/>
  <use href="#land-buddha-enlightenment" fill="none" stroke="#7e9c98" stroke-width="3.5" stroke-opacity="0.5" stroke-linejoin="round"/>
  <use href="#land-buddha-enlightenment" fill="#efe2c2" stroke="none"/>
  <g clip-path="url(#landclip-buddha-enlightenment)"><path d="M188 280L188 282L195 285L193 291L190 291L190 293L187 295L178 295L178 291L175 291L176 285L182 282L182 280ZM138 208L143 211L143 217L136 220L136 222L130 222L128 217L125 217L127 211L128 211L132 206L138 206ZM178 115L177 118L183 121L182 127L179 127L178 130L175 130L175 132L172 134L169 132L169 130L166 130L167 127L164 127L165 121L171 118L172 115ZM147 111L146 115L151 118L151 124L144 127L144 130L138 130L135 124L132 124L133 118L136 118L142 111ZM205 99L210 102L209 108L203 111L202 113L196 113L197 111L194 111L194 108L191 108L194 102L195 102L199 96L205 96ZM169 87L172 87L171 90L174 90L173 96L170 96L166 102L160 102L161 99L158 99L158 96L155 96L156 90L165 83L169 84ZM373 174L370 179L376 181L375 187L369 190L368 193L362 193L363 190L355 189L358 181L361 181L365 176ZM280 158L286 161L285 167L278 170L278 173L272 173L270 167L267 167L269 161L270 161L274 156L280 156ZM324 158L329 161L328 167L322 170L322 173L315 173L313 167L310 167L313 161L318 156L324 156ZM252 153L255 153L256 150L262 150L261 153L267 156L266 161L263 161L262 164L254 167L254 170L251 169L251 171L245 171L243 166L240 166L242 160L243 160L244 157L252 154ZM301 132L301 128L307 130L307 132L312 135L311 141L308 141L308 145L304 148L298 147L296 141L293 141L294 137L297 135L298 132ZM342 128L342 131L345 131L344 134L347 134L347 138L348 138L340 143L339 145L333 145L334 143L331 143L331 140L328 140L327 135L332 134L336 128ZM260 121L266 124L265 130L258 132L258 135L252 135L250 130L247 130L249 124L251 124L255 118L261 118Z" fill="rgb(233,191,177)" stroke="#3b2412" stroke-width="0.8" stroke-opacity="0.75" stroke-dasharray="3 2"/><path d="M-24 -24L53 -24L52 -21L45 -14L46 -11L42 -11L42 -7L37 -7L37 1L30 7L27 6L23 10L12 12L10 13L11 16L2 18L1 21L-24 42Z" fill="rgb(183,198,144)" stroke="#3b2412" stroke-width="0.8" stroke-opacity="0.75" stroke-dasharray="3 2"/></g>
  <use href="#land-buddha-enlightenment" fill="none" stroke="#3b2412" stroke-width="1.1" stroke-linejoin="round"/>
  <text x="254.6" y="160.5" class="lbl">십육대국</text>
  <g transform="translate(320.0 181.8)">
    <path d="M0 -24 L0 -34" transform="rotate(0)" stroke="#8f2a17" stroke-width="2.4" stroke-linecap="round"/><path d="M0 -24 L0 -34" transform="rotate(45)" stroke="#8f2a17" stroke-width="2.4" stroke-linecap="round"/><path d="M0 -24 L0 -34" transform="rotate(90)" stroke="#8f2a17" stroke-width="2.4" stroke-linecap="round"/><path d="M0 -24 L0 -34" transform="rotate(135)" stroke="#8f2a17" stroke-width="2.4" stroke-linecap="round"/><path d="M0 -24 L0 -34" transform="rotate(180)" stroke="#8f2a17" stroke-width="2.4" stroke-linecap="round"/><path d="M0 -24 L0 -34" transform="rotate(225)" stroke="#8f2a17" stroke-width="2.4" stroke-linecap="round"/><path d="M0 -24 L0 -34" transform="rotate(270)" stroke="#8f2a17" stroke-width="2.4" stroke-linecap="round"/><path d="M0 -24 L0 -34" transform="rotate(315)" stroke="#8f2a17" stroke-width="2.4" stroke-linecap="round"/>
    <circle r="20" fill="#8f2a17" fill-opacity="0.35" filter="url(#glow-buddha-enlightenment)"/>
    <circle r="17" fill="#efe2c2" stroke="#3b2412" stroke-width="2.2"/>
    <g transform="translate(-13 -13) scale(0.26)"><path d="M14 30 C28 24 42 26 50 34 C58 26 72 24 86 30 L86 78 C72 72 58 74 50 82 C42 74 28 72 14 78 Z" fill="#f3e6c4" stroke="#3b2412" stroke-width="3" stroke-linejoin="round"/>
    <path d="M50 34 L50 82" stroke="#3b2412" stroke-width="2.5"/>
    <path d="M22 40 L42 38 M22 48 L42 46 M22 56 L40 55 M58 38 L78 40 M58 46 L78 48 M60 55 L78 56" stroke="#3b2412" stroke-width="1.8"/>
    <path d="M66 10 C80 18 84 34 70 46 L64 52 L62 50 C70 38 72 24 66 10 Z" fill="#fbfaf5" stroke="#3b2412" stroke-width="2"/></g>
  </g>
  <rect width="640" height="360" filter="url(#paper-buddha-enlightenment)"/>
  <rect width="640" height="360" fill="url(#vignette-buddha-enlightenment)"/>
  <g transform="translate(582 52)" stroke="#3b2412" stroke-width="1.2">
    <circle r="26" fill="#efe2c2" fill-opacity="0.8"/>
    <path d="M0 -30 L6 0 L0 30 L-6 0 Z" fill="#8f2a17"/><path d="M-30 0 L0 6 L30 0 L0 -6 Z" fill="#e9dcb8"/>
    <path d="M0 -30 L6 0 L0 0 Z" fill="#3b2412"/><text y="-33" class="compass">N</text>
  </g>
  <g transform="translate(66 64)">
    <circle r="50" fill="#efe2c2" stroke="#3b2412" stroke-width="2.4"/>
    <circle r="44" fill="none" stroke="#3b2412" stroke-width="1" stroke-dasharray="2 3"/>
    <g transform="translate(-34 -38) scale(0.68)"><path d="M14 30 C28 24 42 26 50 34 C58 26 72 24 86 30 L86 78 C72 72 58 74 50 82 C42 74 28 72 14 78 Z" fill="#f3e6c4" stroke="#3b2412" stroke-width="3" stroke-linejoin="round"/>
    <path d="M50 34 L50 82" stroke="#3b2412" stroke-width="2.5"/>
    <path d="M22 40 L42 38 M22 48 L42 46 M22 56 L40 55 M58 38 L78 40 M58 46 L78 48 M60 55 L78 56" stroke="#3b2412" stroke-width="1.8"/>
    <path d="M66 10 C80 18 84 34 70 46 L64 52 L62 50 C70 38 72 24 66 10 Z" fill="#fbfaf5" stroke="#3b2412" stroke-width="2"/></g>
    <path d="M-42 44 L42 44 L36 58 L42 72 L-42 72 L-36 58 Z" fill="#8f2a17" stroke="#3b2412" stroke-width="2"/>
    <text y="63" class="kind">문화·학문</text>
  </g>
  <g transform="translate(320 316)">
    <path d="M-262 -26 L262 -26 C272 -26 276 -18 270 -12 L276 0 L270 12 C276 18 272 26 262 26 L-262 26 C-272 26 -276 18 -270 12 L-276 0 L-270 -12 C-276 -18 -272 -26 -262 -26 Z" fill="#f4e8c8" stroke="#3b2412" stroke-width="2.2"/>
    <path d="M-252 -19 L252 -19 M-252 19 L252 19" stroke="#3b2412" stroke-width="0.8" stroke-dasharray="1 3"/>
    <text y="2" class="title" style="font-size:21px">붓다의 깨달음과 첫 설법</text>
  </g>
  <text x="320" y="284" class="year">기원전 528년</text>
</g>
<rect x="10" y="10" width="620" height="340" rx="6" fill="none" stroke="#c9a45c" stroke-width="2"/>
<rect x="15" y="15" width="610" height="330" rx="4" fill="none" stroke="#c9a45c" stroke-width="0.8"/>
<style>
  text { font-family: 'Noto Serif KR', 'Nanum Myeongjo', 'AppleMyungjo', 'Batang', serif; text-anchor: middle; }
  .lbl { font-size: 11px; font-style: italic; fill: #3b2412; fill-opacity: 0.8; paint-order: stroke; stroke: #efe2c2; stroke-width: 3px; }
  .lbl.hl { font-size: 15px; font-weight: 700; font-style: normal; fill: #8f2a17; fill-opacity: 1; letter-spacing: 1px; }
  .title { font-weight: 800; fill: #3b2412; dominant-baseline: middle; }
  .year { font-size: 13px; font-weight: 700; fill: #f4e8c8; paint-order: stroke; stroke: #3b2412; stroke-width: 4px; letter-spacing: 2px; }
  .kind { font-size: 13px; font-weight: 800; fill: #f4e8c8; }
  .compass { font-size: 11px; font-weight: 700; fill: #3b2412; stroke: none; }
</style>
</svg>