<svg xmlns="http://www.w3.org/2000/svg" viewBox="0 0 640 360" width="640" height="360" role="img" aria-label="돌궐 카간국의 성립">
<defs>
  <clipPath id="frame-gokturk-khaganate"><rect x="10" y="10" width="620" height="340" rx="6"/></clipPath>
  <pattern id="waves-gokturk-khaganate" width="22" height="9" patternUnits="userSpaceOnUse">
    <path d="M0 5 C4 2 7 2 11 5 C15 8 18 8 22 5" fill="none" stroke="#6f8f8f" stroke-width="0.7" stroke-opacity="0.55"/>
  </pattern>
  <pattern id="hatch-gokturk-khaganate" width="6" height="6" patternUnits="userSpaceOnUse" patternTransform="rotate(35)">
    <path d="M0 0 L0 6" stroke="#3b2412" stroke-width="0.9" stroke-opacity="0.45"/>
  </pattern>
  <filter id="paper-gokturk-khaganate" x="0" y="0" width="100%" height="100%">
    <feTurbulence type="fractalNoise" baseFrequency="0.9" numOctaves="3" seed="40" result="noise"/>
    <feColorMatrix in="noise" type="matrix" values="0 0 0 0 0.45  0 0 0 0 0.33  0 0 0 0 0.18  0 0 0 0.22 0"/>
  </filter>
  <radialGradient id="vignette-gokturk-khaganate" cx="50%" cy="48%" r="70%">
    <stop offset="60%" stop-color="#3b2412" stop-opacity="0"/><stop offset="100%" stop-color="#3b2412" stop-opacity="0.45"/>
  </radialGradient>
  <filter id="glow-gokturk-khaganate"><feGaussianBlur stdDeviation="3"/></filter>
  <path id="land-gokturk-khaganate" d="M-24 384L71 384L66 380L64 380L63 377L62 380L55 362L49 358L47 344L48 345L46 339L39 334L38 328L40 328L37 324L28 304L23 297L21 293L22 290L26 299L32 305L36 293L33 302L37 303L48 320L49 325L56 330L59 337L57 339L59 345L62 349L67 353L71 362L78 370L78 379L80 384L113 384L131 377L131 373L133 372L141 369L146 369L148 364L153 363L156 359L161 357L162 350L163 348L165 349L172 336L166 330L156 326L153 321L154 313L141 327L133 326L129 328L127 325L125 326L127 321L127 316L125 314L124 315L122 323L118 315L119 311L112 305L108 294L106 294L108 293L107 290L112 290L113 287L114 288L112 288L116 290L119 289L126 303L132 305L139 311L145 312L152 308L156 308L159 317L168 319L176 319L183 321L196 319L199 320L209 319L207 319L208 318L210 322L213 323L215 328L217 328L218 329L218 328L219 330L222 328L220 331L222 333L227 335L231 333L229 336L223 338L232 347L240 344L240 338L244 338L242 340L243 339L242 341L246 341L243 343L245 347L243 352L245 356L244 355L244 357L245 356L247 374L253 384L284 384L285 376L287 375L288 376L288 374L289 376L290 372L296 371L297 368L314 353L312 354L312 353L319 351L317 350L319 351L322 347L322 343L328 339L327 337L329 342L330 340L331 342L331 338L332 342L333 342L333 339L335 341L336 337L336 341L339 337L338 339L340 338L339 340L340 340L342 338L341 335L342 332L340 331L342 330L344 336L347 334L348 338L349 337L350 344L354 350L353 347L354 348L354 350L355 348L356 352L356 351L359 352L358 353L360 355L358 355L360 358L361 355L364 366L362 375L365 371L364 375L366 373L365 376L367 374L367 376L368 374L368 376L370 373L373 372L373 370L375 371L376 366L379 372L381 371L380 374L383 384L444 384L440 374L433 369L425 358L426 352L431 347L430 345L433 346L436 342L440 342L440 340L444 343L446 341L448 342L447 346L448 350L450 350L452 348L450 346L451 343L451 344L458 342L459 340L461 341L462 339L463 341L465 340L466 338L467 338L466 336L468 339L468 336L466 334L467 333L470 333L468 333L469 335L472 338L472 336L474 337L474 335L476 336L478 334L479 335L478 334L481 335L484 334L484 332L486 332L485 331L489 330L489 328L490 329L493 326L492 325L494 323L496 324L496 322L498 322L498 320L500 320L499 319L500 318L502 319L501 317L502 315L499 314L501 315L503 313L501 313L503 313L501 310L504 310L503 312L504 311L504 310L506 308L505 307L507 308L508 304L507 302L509 303L510 301L511 302L513 301L510 298L513 298L513 297L511 296L515 295L514 293L512 294L515 291L511 288L508 290L507 288L505 289L515 285L508 278L504 278L502 275L504 278L507 277L514 279L508 273L505 262L499 260L499 258L505 251L504 249L508 250L509 247L508 247L514 244L518 245L519 241L512 241L508 238L505 239L502 243L499 243L498 240L500 239L498 236L491 235L491 229L498 229L501 224L506 221L509 217L514 216L516 219L510 226L514 227L510 231L510 232L522 224L526 224L528 222L529 226L530 225L534 226L532 232L535 233L532 232L531 236L529 236L533 237L531 238L534 238L533 239L535 237L537 239L541 238L540 243L542 244L541 246L539 244L537 246L538 247L539 246L539 250L542 251L540 251L541 252L539 253L541 254L538 256L539 258L538 257L539 259L540 259L539 261L538 259L540 262L544 259L544 261L544 259L546 260L546 258L550 259L551 256L554 257L556 251L555 251L556 244L550 232L544 229L545 225L557 217L558 210L561 206L563 206L563 203L565 204L569 198L570 199L569 200L572 199L571 202L576 203L587 197L601 179L610 163L615 158L616 146L618 144L616 140L618 133L622 126L620 124L621 120L618 117L620 118L622 115L617 112L613 106L606 106L605 114L604 114L606 109L604 112L599 113L602 109L599 108L601 106L598 108L598 110L596 111L596 103L590 104L587 101L604 86L606 80L617 71L619 66L628 57L631 55L645 54L647 55L647 58L650 54L655 57L659 55L663 57L662 55L663 53L664 54L664 -24L67 -24L62 -17L66 -6L62 -7L61 -6L55 -9L52 -7L54 -10L47 -14L46 -11L44 -10L47 -4L51 -4L52 -3L53 1L49 4L43 1L40 -3L39 -4L38 -3L34 -6L36 -8L32 -17L34 -18L34 -22L36 -21L34 -24L-24 -24L-23 -22L-21 -24L-21 -20L-18 -18L-17 -11L-18 -11L-17 -9L-19 -11L-22 -9L-24 -4L-24 48L-16 44L-14 46L-14 43L-12 44L-10 41L-11 43L-10 44L-7 42L-6 43L-2 42L1 40L1 43L0 42L1 44L10 48L9 50L4 48L2 51L0 50L-1 52L-2 50L-4 55L-16 52L-17 54L-20 53L-24 55L-24 67L-22 66L-24 79L-24 221L-23 222L-24 218L-22 216L-9 218L-13 223L-5 216L3 216L3 214L-2 212L-6 205L-3 203L-2 198L0 198L2 186L3 186L3 188L6 187L6 179L7 181L13 173L16 173L16 171L16 173L19 173L18 168L19 173L23 173L21 174L16 173L20 175L18 176L22 177L28 177L29 179L22 182L28 185L27 189L30 190L38 185L44 185L45 183L38 183L35 177L37 174L38 175L36 177L41 173L45 172L45 173L50 169L59 168L59 170L55 171L55 173L51 172L55 177L53 177L52 179L52 178L50 181L51 183L47 184L46 182L45 183L47 183L44 184L71 203L73 209L71 213L66 215L54 216L45 213L43 214L41 211L37 211L36 208L26 208L15 215L4 214L3 216L4 217L8 218L2 219L3 220L-10 220L-13 223L-13 227L-9 226L-10 228L-8 231L-10 233L-7 234L-10 235L-12 232L-13 235L-7 237L-8 239L-5 242L-7 244L-1 244L-6 246L-2 245L-3 247L0 245L6 250L11 249L12 245L19 247L24 251L30 250L34 245L38 247L42 245L42 247L40 249L41 251L40 254L41 261L34 279L28 283L23 284L24 283L20 282L20 284L18 282L19 281L20 282L19 281L14 280L3 285L-9 281L-18 281L-19 278L-24 277ZM16 175L20 177L16 175ZM21 257L22 260L25 261L31 258L30 256L33 253L21 257ZM108 292L109 292L108 290L108 292ZM121 314L121 317L121 314ZM147 311L153 309L147 311ZM166 350L167 347L166 350ZM342 335L342 339L343 337L342 335ZM441 356L441 360L447 362L452 358L451 356L454 353L454 351L445 352L441 356ZM502 373L506 383L507 381L509 383L508 384L519 384L513 384L511 378L518 368L516 365L516 360L514 361L510 359L507 360L506 373L502 373ZM504 333L508 340L514 321L512 320L509 321L505 329L504 333ZM510 279L515 281L510 279ZM538 269L542 268L538 269ZM546 314L549 310L546 314ZM554 301L555 302L557 300L554 301ZM555 262L556 260L555 262ZM556 270L559 272L557 270L557 274L561 273L559 272L560 270L562 272L559 281L562 283L563 279L562 284L565 281L566 282L570 271L569 269L567 269L568 267L565 267L564 265L556 270ZM563 287L565 285L563 287ZM564 264L564 265L568 264L570 266L572 262L573 263L583 259L588 260L587 265L590 268L594 263L597 263L595 260L596 257L597 259L597 258L599 260L597 261L604 260L607 257L607 260L609 256L612 257L614 253L612 258L616 257L619 253L617 249L619 243L619 236L621 234L622 235L622 233L625 227L622 218L622 213L619 212L618 215L620 214L620 217L618 217L616 214L615 217L613 219L614 222L612 223L614 225L613 231L606 241L599 246L597 244L599 241L596 242L596 246L592 251L592 253L588 255L588 253L577 255L576 254L567 262L564 262L564 264ZM570 269L572 268L572 271L575 273L578 268L582 269L585 265L584 263L580 262L576 265L575 263L570 269ZM584 262L586 263L586 260L584 262ZM595 100L598 100L598 98L595 100ZM599 102L600 101L601 103L604 99L600 98L599 102ZM604 238L606 238L606 235L604 238ZM613 206L615 209L614 211L615 213L617 210L620 210L615 206L617 204L619 206L624 204L632 209L635 202L641 201L646 198L643 198L642 195L643 191L640 194L634 192L625 182L623 182L624 188L622 199L620 200L616 198L617 201L613 203L613 206ZM623 128L626 135L624 155L626 162L624 173L625 179L628 172L632 173L633 178L634 175L628 164L630 152L634 151L632 150L636 151L640 156L632 130L632 132L632 119L629 105L628 107L626 106L629 110L628 112L629 111L628 112L629 113L624 115L623 128Z"/>
  <clipPath id="landclip-gokturk-khaganate"><use href="#land-gokturk-khaganate"/></clipPath>
  <path id="hl-gokturk-khaganate-26" d="M134 152L133 147L135 143L148 140L167 142L190 140L210 142L218 135L221 135L224 138L235 140L235 142L237 140L251 142L271 141L273 143L296 142L318 138L339 129L342 129L345 131L352 131L364 125L374 123L382 123L384 125L388 126L397 119L402 121L403 124L407 125L411 128L413 136L417 137L442 129L446 129L451 131L461 130L485 121L491 121L499 124L503 130L504 130L504 131L508 133L495 172L474 208L462 219L458 225L454 234L447 237L429 241L423 239L418 240L414 237L416 232L413 232L419 226L419 224L399 226L395 223L390 223L377 215L360 218L346 213L340 209L315 203L306 203L295 207L286 205L283 206L278 202L271 201L258 202L252 199L236 201L221 191L198 189L181 183L180 178L182 170L179 172L179 170L174 171L170 178L166 178L162 190L162 194L164 197L162 204L156 190L142 186L142 181L138 183L135 181L136 171L132 170L134 152ZM247 180L250 186L252 178L258 173L275 176L278 175L280 171L276 171L273 173L254 171L248 176L247 180Z"/>
</defs>
<rect width="640" height="360" rx="10" fill="#2a1a0c"/>
<g clip-path="url(#frame-gokturk-khaganate)">
  <rect width="640" height="360" fill="#b9ccc6"/>
  <rect width="640" height="360" fill="url(#waves-gokturk-khaganate)"/>
  <use href="#land-gokturk-khaganate" fill="none" stroke="#7e9c98" stroke-width="7" stroke-opacity="0.35" stroke-linejoin="round"/>
  <use href="#land-gokturk-khaganate" fill="none" stroke="#7e9c98" stroke-width="3.5" stroke-opacity="0.5" stroke-linejoin="round"/>
  <use href="#land-gokturk-khaganate" fill="#efe2c2" stroke="none"/>
  <g clip-path="url(#landclip-gokturk-khaganate)"><path d="M376 339L375 349L373 358L370 361L367 361L363 346L368 329L372 327L375 328L376 338Z" fill="rgb(230,199,156)" stroke="#3b2412" stroke-width="0.8" stroke-opacity="0.75" stroke-dasharray="3 2"/><path d="M541 269L542 267L539 268L538 270L541 269Z" fill="rgb(181,211,179)" stroke="#3b2412" stroke-width="0.8" stroke-opacity="0.75" stroke-dasharray="3 2"/><path d="M32 353L19 354L13 351L14 361L37 363L32 353Z" fill="rgb(212,174,123)" stroke="#3b2412" stroke-width="0.8" stroke-opacity="0.75" stroke-dasharray="3 2"/><path d="M29 339L29 331L27 329L17 329L11 331L13 351L19 354L32 353L29 339Z" fill="rgb(215,194,204)" stroke="#3b2412" stroke-width="0.8" stroke-opacity="0.75" stroke-dasharray="3 2"/><path d="M338 317L340 319L356 320L362 318L369 312L362 302L359 302L341 307L339 315Z" fill="rgb(164,179,126)" stroke="#3b2412" stroke-width="0.8" stroke-opacity="0.75" stroke-dasharray="3 2"/><path d="M346 213L340 209L315 203L306 203L295 207L284 206L271 212L274 215L274 227L273 232L269 234L276 241L289 247L295 245L293 244L295 240L313 228L329 221L352 215Z" fill="rgb(139,180,163)" stroke="#3b2412" stroke-width="0.8" stroke-opacity="0.75" stroke-dasharray="3 2"/><path d="M545 261L543 262L543 259L540 262L539 261L537 262L541 252L539 250L539 246L537 245L539 244L548 245L548 249L545 255L545 260Z" fill="rgb(176,208,203)" stroke="#3b2412" stroke-width="0.8" stroke-opacity="0.75" stroke-dasharray="3 2"/><path d="M89 278L90 282L95 288L99 288L100 291L105 293L105 295L109 302L100 305L91 304L80 300L63 290L65 282L75 269L85 277Z" fill="rgb(228,179,173)" stroke="#3b2412" stroke-width="0.8" stroke-opacity="0.75" stroke-dasharray="3 2"/><path d="M563 192L559 186L555 185L552 187L532 191L525 204L514 214L514 217L516 219L511 226L511 227L513 227L509 232L512 232L520 226L528 224L533 227L530 237L532 237L531 238L532 238L533 240L535 238L539 238L541 245L546 244L548 245L552 242L554 243L555 241L550 232L545 228L545 225L557 217L558 210L566 204L568 199L570 200L573 195L564 192Z" fill="rgb(203,164,116)" stroke="#3b2412" stroke-width="0.8" stroke-opacity="0.75" stroke-dasharray="3 2"/><path d="M551 259L552 258L551 258L551 253L547 252L545 259L548 259L548 258L550 259Z" fill="rgb(204,160,128)" stroke="#3b2412" stroke-width="0.8" stroke-opacity="0.75" stroke-dasharray="3 2"/><path d="M556 254L556 242L552 242L548 245L547 252L551 253L551 256L553 258L556 254Z" fill="rgb(139,175,179)" stroke="#3b2412" stroke-width="0.8" stroke-opacity="0.75" stroke-dasharray="3 2"/><path d="M243 343L246 341L242 341L244 338L240 338L240 344L234 347L231 346L223 338L229 336L231 333L224 334L220 330L229 327L250 330L251 342L243 344Z" fill="rgb(204,157,144)" stroke="#3b2412" stroke-width="0.8" stroke-opacity="0.75" stroke-dasharray="3 2"/><path d="M357 222L357 219L360 218L354 215L329 221L313 228L295 240L293 244L295 245L310 241L329 239L363 243L390 251L399 255L402 259L403 273L411 268L414 255L414 248L406 241L405 239L403 240L396 233L395 235L393 234L389 228L382 230L376 227L375 232L374 232L368 227L357 227L356 222Z" fill="rgb(187,170,113)" stroke="#3b2412" stroke-width="0.8" stroke-opacity="0.75" stroke-dasharray="3 2"/><path d="M399 299L399 284L403 273L411 268L414 255L414 248L406 241L405 239L403 240L396 233L395 235L393 234L389 228L382 230L376 227L375 232L374 232L368 227L357 227L356 224L357 219L360 218L377 215L390 223L395 223L399 226L419 224L419 226L413 232L416 232L414 237L418 240L423 239L429 241L447 237L455 234L456 236L453 246L454 249L453 251L457 253L450 270L453 271L455 276L446 274L437 287L424 295L417 297L413 305L409 305L407 300L405 299L399 299Z" fill="rgb(192,209,167)" stroke="#3b2412" stroke-width="0.8" stroke-opacity="0.75" stroke-dasharray="3 2"/><path d="M198 189L216 189L228 194L231 198L236 201L252 198L258 202L278 202L284 206L271 212L275 218L273 232L270 234L261 232L256 233L254 236L253 242L258 254L256 259L251 261L248 259L245 266L240 264L232 275L223 279L218 272L213 270L202 259L200 254L199 237L190 228L187 223L177 226L172 224L172 222L165 220L157 222L155 220L159 213L164 197L166 196L169 198L175 197L183 183L196 188Z" fill="rgb(231,194,193)" stroke="#3b2412" stroke-width="0.8" stroke-opacity="0.75" stroke-dasharray="3 2"/><path d="M619 238L620 242L617 248L619 252L616 256L612 259L614 253L612 256L609 256L608 260L607 260L607 257L604 260L598 261L599 259L596 258L597 263L594 263L591 268L586 265L586 262L589 260L583 259L577 262L572 262L571 265L565 265L565 267L569 266L568 269L570 271L567 281L563 284L560 282L559 278L562 272L561 271L559 272L557 272L557 268L564 265L564 262L567 261L574 254L588 252L588 254L590 254L597 241L599 240L597 243L599 245L606 241L610 236L610 237L613 238L619 236L619 237Z" fill="rgb(227,169,163)" stroke="#3b2412" stroke-width="0.8" stroke-opacity="0.75" stroke-dasharray="3 2"/><path d="M89 202L95 204L95 207L101 210L105 214L107 213L109 209L116 219L119 219L116 221L114 227L112 230L112 238L113 241L117 241L125 247L141 245L140 230L136 227L138 226L138 223L133 222L134 217L137 217L137 218L143 217L157 222L165 220L172 222L172 224L177 226L187 223L190 228L199 237L200 254L202 259L213 270L218 272L209 299L209 312L205 319L183 321L162 318L158 316L157 310L155 308L152 308L152 311L147 312L149 311L144 313L138 311L132 305L126 304L119 289L116 290L112 288L113 290L109 291L110 293L106 294L108 295L112 305L119 311L119 315L122 321L124 315L128 316L126 325L129 327L133 326L141 327L154 313L154 322L156 325L160 328L167 330L169 334L156 329L152 322L142 329L129 329L125 327L126 316L123 323L122 324L117 316L118 313L110 306L108 299L105 295L105 293L100 291L99 288L95 288L90 282L89 278L85 277L81 272L64 262L69 258L69 251L72 249L68 234L69 228L72 222L71 218L73 211L72 204L63 197L67 196L74 199L77 199L84 202L84 203Z" fill="rgb(183,198,144)" stroke="#3b2412" stroke-width="0.8" stroke-opacity="0.75" stroke-dasharray="3 2"/><path d="M270 377L270 369L267 364L260 359L253 358L249 363L249 369L246 369L243 352L244 347L243 344L251 342L251 328L252 325L255 324L264 324L265 326L277 331L281 331L288 338L295 332L300 333L304 338L301 347L292 349L287 352L286 359L294 366L291 370L292 372L289 376L286 376L284 378L279 375L276 375L275 378L270 377Z" fill="rgb(166,179,126)" stroke="#3b2412" stroke-width="0.8" stroke-opacity="0.75" stroke-dasharray="3 2"/><path d="M256 324L254 324L255 320L267 310L262 293L263 287L273 279L277 280L281 284L289 288L286 292L284 298L302 307L308 307L313 311L323 313L333 312L338 315L338 320L340 325L336 341L332 342L331 339L329 342L328 340L322 343L321 350L317 353L313 352L308 360L301 357L292 349L301 347L304 340L304 338L300 333L295 332L288 338L281 331L277 331L265 326L264 324L256 324Z" fill="rgb(174,168,184)" stroke="#3b2412" stroke-width="0.8" stroke-opacity="0.75" stroke-dasharray="3 2"/><path d="M255 384L270 384L270 369L267 364L260 359L253 358L249 363L254 381Z" fill="rgb(194,187,205)" stroke="#3b2412" stroke-width="0.8" stroke-opacity="0.75" stroke-dasharray="3 2"/><path d="M-16 196L-12 192L-4 192L-4 183L-3 181L0 183L5 182L6 185L3 187L2 186L0 197L-3 199L-4 203L-6 204L-3 211L2 215L15 215L23 209L35 208L36 208L37 210L41 210L42 214L45 213L54 217L58 215L65 216L73 211L71 218L72 222L69 228L68 234L70 244L72 248L69 251L69 258L64 262L58 261L47 269L44 276L43 285L35 294L32 305L26 300L26 297L23 291L22 292L37 324L40 328L17 329L11 331L6 326L0 324L-1 320L-2 307L-8 301L-24 292L-24 278L-20 278L-18 281L-9 281L2 285L5 285L14 280L19 281L19 283L32 282L39 262L41 261L40 249L43 245L40 245L38 247L33 245L30 249L23 251L20 247L14 245L12 245L11 249L8 249L4 249L3 246L0 245L-3 246L-2 243L-7 242L-7 237L-11 236L-12 232L-11 235L-8 235L-8 233L-9 233L-9 226L-13 226L-12 221L-11 219L3 220L2 219L5 217L4 217L3 215L-5 215L-9 219L-11 218L-13 219L-15 216L-23 216L-24 236L-24 195L-20 195ZM31 258L25 261L20 258L24 255L33 253L30 256ZM28 185L23 182L32 177L36 181L36 183L38 183L37 186L29 190L27 188L28 185Z" fill="rgb(206,165,177)" stroke="#3b2412" stroke-width="0.8" stroke-opacity="0.75" stroke-dasharray="3 2"/><path d="M407 125L412 128L411 133L413 136L417 137L442 129L446 129L451 131L461 130L487 121L497 123L503 130L504 130L504 131L508 133L496 170L495 179L503 184L522 185L530 189L532 191L525 204L518 210L510 213L490 213L484 217L477 224L474 223L469 226L463 226L458 232L447 237L427 241L425 239L418 240L414 237L416 232L413 232L419 226L419 224L399 226L395 223L390 223L377 215L360 218L346 213L340 209L315 203L306 203L295 207L284 206L278 202L272 201L283 186L291 181L296 173L299 166L296 158L298 154L316 139L339 129L352 131L364 125L374 123L382 123L387 126L397 118L403 121L404 124L407 125Z" fill="rgb(214,189,126)" stroke="#3b2412" stroke-width="0.8" stroke-opacity="0.75" stroke-dasharray="3 2"/><path d="M450 360L448 362L442 360L442 355L444 351L454 350L454 354L450 360ZM507 267L509 270L509 273L515 279L514 280L509 279L515 283L507 289L512 288L515 291L514 295L512 293L513 301L510 301L507 308L504 310L505 312L501 315L502 315L501 318L503 318L500 318L500 320L497 324L494 324L491 329L487 330L485 334L477 335L476 336L474 335L473 339L471 339L471 337L468 335L469 339L451 344L451 350L448 350L448 342L435 342L431 339L431 334L425 334L424 332L421 333L410 331L404 326L400 313L399 299L405 299L407 300L409 305L413 305L417 297L424 295L437 287L446 274L455 276L471 270L486 268L493 265L499 259L506 262L507 266Z" fill="rgb(204,160,128)" stroke="#3b2412" stroke-width="0.8" stroke-opacity="0.75" stroke-dasharray="3 2"/><path d="M71 266L67 263L58 261L47 269L44 276L43 285L35 294L33 303L37 303L39 307L52 299L64 289L65 282L75 269L71 266Z" fill="rgb(199,204,212)" stroke="#3b2412" stroke-width="0.8" stroke-opacity="0.75" stroke-dasharray="3 2"/><path d="M508 219L510 217L514 217L518 210L510 213L490 213L484 217L477 224L474 223L469 226L463 226L458 232L455 234L456 236L453 242L453 251L457 253L450 270L453 271L455 276L471 270L482 270L493 265L509 247L514 245L517 245L519 241L512 241L508 238L502 243L499 243L498 242L501 237L497 236L493 236L491 234L491 229L498 229L500 225L507 219Z" fill="rgb(211,171,176)" stroke="#3b2412" stroke-width="0.8" stroke-opacity="0.75" stroke-dasharray="3 2"/><path d="M438 342L431 339L431 334L422 332L422 336L420 338L422 340L420 344L422 346L418 348L421 350L421 359L425 364L429 364L430 362L425 358L427 351L430 350L431 346L438 343Z" fill="rgb(163,179,127)" stroke="#3b2412" stroke-width="0.8" stroke-opacity="0.75" stroke-dasharray="3 2"/><use href="#hl-gokturk-khaganate-26" fill="rgb(149,106,156)" stroke="none"/>
       <use href="#hl-gokturk-khaganate-26" fill="url(#hatch-gokturk-khaganate)" stroke="none"/>
       <use href="#hl-gokturk-khaganate-26" fill="none" stroke="#8f2a17" stroke-width="5" stroke-opacity="0.35" stroke-linejoin="round"/>
       <use href="#hl-gokturk-khaganate-26" fill="none" stroke="#3b2412" stroke-width="1.8" stroke-linejoin="round"/></g>
  <use href="#land-gokturk-khaganate" fill="none" stroke="#3b2412" stroke-width="1.1" stroke-linejoin="round"/>
  <text x="399.2" y="136.9" class="lbl hl">돌궐 제국</text><text x="213.1" y="222.0" class="lbl">백훈족</text><text x="426.4" y="248.1" class="lbl">서위</text><text x="358.6" y="231.9" class="lbl">토욕혼</text><text x="300.9" y="219.5" class="lbl">서역도호부</text><text x="538.6" y="208.6" class="lbl">고구려</text><text x="543.6" y="247.8" class="lbl">백제</text>
  <g transform="translate(399.2 178.9)">
    <path d="M0 -24 L0 -34" transform="rotate(0)" stroke="#8f2a17" stroke-width="2.4" stroke-linecap="round"/><path d="M0 -24 L0 -34" transform="rotate(45)" stroke="#8f2a17" stroke-width="2.4" stroke-linecap="round"/><path d="M0 -24 L0 -34" transform="rotate(90)" stroke="#8f2a17" stroke-width="2.4" stroke-linecap="round"/><path d="M0 -24 L0 -34" transform="rotate(135)" stroke="#8f2a17" stroke-width="2.4" stroke-linecap="round"/><path d="M0 -24 L0 -34" transform="rotate(180)" stroke="#8f2a17" stroke-width="2.4" stroke-linecap="round"/><path d="M0 -24 L0 -34" transform="rotate(225)" stroke="#8f2a17" stroke-width="2.4" stroke-linecap="round"/><path d="M0 -24 L0 -34" transform="rotate(270)" stroke="#8f2a17" stroke-width="2.4" stroke-linecap="round"/><path d="M0 -24 L0 -34" transform="rotate(315)" stroke="#8f2a17" stroke-width="2.4" stroke-linecap="round"/>
    <circle r="20" fill="#8f2a17" fill-opacity="0.35" filter="url(#glow-gokturk-khaganate)"/>
    <circle r="17" fill="#efe2c2" stroke="#3b2412" stroke-width="2.2"/>
    <g transform="translate(-13 -13) scale(0.26)"><path d="M18 70 L14 34 L32 50 L50 24 L68 50 L86 34 L82 70 Z" fill="#e9c46a" stroke="#3b2412" stroke-width="3" stroke-linejoin="round"/>
    <rect x="17" y="70" width="66" height="10" rx="2" fill="#d4a94f" stroke="#3b2412" stroke-width="3"/>
    <circle cx="50" cy="22" r="5" fill="#8f2a17" stroke="#3b2412" stroke-width="2"/><circle cx="14" cy="32" r="4" fill="#8f2a17" stroke="#3b2412" stroke-width="2"/>
    <circle cx="86" cy="32" r="4" fill="#8f2a17" stroke="#3b2412" stroke-width="2"/><circle cx="50" cy="60" r="5" fill="#3f6e9a" stroke="#3b2412" stroke-width="2"/></g>
  </g>
  <rect width="640" height="360" filter="url(#paper-gokturk-khaganate)"/>
  <rect width="640" height="360" fill="url(#vignette-gokturk-khaganate)"/>
  <g transform="translate(582 52)" stroke="#3b2412" stroke-width="1.2">
    <circle r="26" fill="#efe2c2" fill-opacity="0.8"/>
    <path d="M0 -30 L6 0 L0 30 L-6 0 Z" fill="#8f2a17"/><path d="M-30 0 L0 6 L30 0 L0 -6 Z" fill="#e9dcb8"/>
    <path d="M0 -30 L6 0 L0 0 Z" fill="#3b2412"/><text y="-33" class="compass">N</text>
  </g>
  <g transform="translate(66 64)">
    <circle r="50" fill="#efe2c2" stroke="#3b2412" stroke-width="2.4"/>
    <circle r="44" fill="none" stroke="#3b2412" stroke-width="1" stroke-dasharray="2 3"/>
    <g transform="translate(-34 -38) scale(0.68)"><path d="M18 70 L14 34 L32 50 L50 24 L68 50 L86 34 L82 70 Z" fill="#e9c46a" stroke="#3b2412" stroke-width="3" stroke-linejoin="round"/>
    <rect x="17" y="70" width="66" height="10" rx="2" fill="#d4a94f" stroke="#3b2412" stroke-width="3"/>
    <circle cx="50" cy="22" r="5" fill="#8f2a17" stroke="#3b2412" stroke-width="2"/><circle cx="14" cy="32" r="4" fill="#8f2a17" stroke="#3b2412" stroke-width="2"/>
    <circle cx="86" cy="32" r="4" fill="#8f2a17" stroke="#3b2412" stroke-width="2"/><circle cx="50" cy="60" r="5" fill="#3f6e9a" stroke="#3b2412" stroke-width="2"/></g>
    <path d="M-42 44 L42 44 L36 58 L42 72 L-42 72 L-36 58 Z" fill="#8f2a17" stroke="#3b2412" stroke-width="2"/>
    <text y="63" class="kind">건국</text>
  </g>
  <g transform="translate(320 316)">
    <path d="M-262 -26 L262 -26 C272 -26 276 -18 270 -12 L276 0 L270 12 C276 18 272 26 262 26 L-262 26 C-272 26 -276 18 -270 12 L-276 0 L-270 -12 C-276 -18 -272 -26 -262 -26 Z" fill="#f4e8c8" stroke="#3b2412" stroke-width="2.2"/>
    <path d="M-252 -19 L252 -19 M-252 19 L252 19" stroke="#3b2412" stroke-width="0.8" stroke-dasharray="1 3"/>
    <text y="2" class="title" style="font-size:21px">돌궐 카간국의 성립</text>
  </g>
  <text x="320" y="284" class="year">서기 552년</text>
</g>
<rect x="10" y="10" width="620" height="340" rx="6" fill="none" stroke="#c9a45c" stroke-width="2"/>
<rect x="15" y="15" width="610" height="330" rx="4" fill="none" stroke="#c9a45c" stroke-width="0.8"/>
<style>
  text { font-family: 'Noto Serif KR', 'Nanum Myeongjo', 'AppleMyungjo', 'Batang', serif; text-anchor: middle; }
  .lbl { font-size: 11px; font-style: italic; fill: #3b2412; fill-opacity: 0.8; paint-order: stroke; stroke: #efe2c2; stroke-width: 3px; }
  .lbl.hl { font-size: 15px; font-weight: 700; font-style: normal; fill: #8f2a17; fill-opacity: 1; letter-spacing: 1px; }
  .title { font-weight: 800; fill: #3b2412; dominant-baseline: middle; }
  .year { font-size: 13px; font-weight: 700; fill: #f4e8c8; paint-order: stroke; stroke: #3b2412; stroke-width: 4px; letter-spacing: 2px; }
  .kind { font-size: 13px; font-weight: 800; fill: #f4e8c8; }
  .compass { font-size: 11px; font-weight: 700; fill: #3b2412; stroke: none; }
</style>
</svg>