<svg xmlns="http://www.w3.org/2000/svg" viewBox="0 0 640 360" width="640" height="360" role="img" aria-label="오스만 술탄제 폐지">
<defs>
  <clipPath id="frame-ottoman-sultanate-abolished"><rect x="10" y="10" width="620" height="340" rx="6"/></clipPath>
  <pattern id="waves-ottoman-sultanate-abolished" width="22" height="9" patternUnits="userSpaceOnUse">
    <path d="M0 5 C4 2 7 2 11 5 C15 8 18 8 22 5" fill="none" stroke="#6f8f8f" stroke-width="0.7" stroke-opacity="0.55"/>
  </pattern>
  <pattern id="hatch-ottoman-sultanate-abolished" width="6" height="6" patternUnits="userSpaceOnUse" patternTransform="rotate(35)">
    <path d="M0 0 L0 6" stroke="#3b2412" stroke-width="0.9" stroke-opacity="0.45"/>
  </pattern>
  <filter id="paper-ottoman-sultanate-abolished" x="0" y="0" width="100%" height="100%">
    <feTurbulence type="fractalNoise" baseFrequency="0.9" numOctaves="3" seed="130" result="noise"/>
    <feColorMatrix in="noise" type="matrix" values="0 0 0 0 0.45  0 0 0 0 0.33  0 0 0 0 0.18  0 0 0 0.22 0"/>
  </filter>
  <radialGradient id="vignette-ottoman-sultanate-abolished" cx="50%" cy="48%" r="70%">
    <stop offset="60%" stop-color="#3b2412" stop-opacity="0"/><stop offset="100%" stop-color="#3b2412" stop-opacity="0.45"/>
  </radialGradient>
  <filter id="glow-ottoman-sultanate-abolished"><feGaussianBlur stdDeviation="3"/></filter>
  <path id="land-ottoman-sultanate-abolished" d="M664 384L664 -24L-24 -24L-24 103L-18 105L-17 111L-21 112L-19 114L-22 117L-19 121L-21 130L-20 128L-19 130L-21 132L-21 130L-22 131L-24 138L-20 140L-21 142L-22 141L-20 146L-24 144L-20 150L-12 154L-11 158L-9 159L-9 164L-5 166L-6 168L-3 169L-4 172L-2 175L1 175L6 184L8 184L7 182L8 180L9 182L10 181L13 182L14 181L15 183L16 186L14 185L14 186L12 184L7 184L8 186L6 188L7 189L9 188L13 196L14 195L14 200L16 201L18 200L19 196L23 202L32 198L37 201L41 200L41 197L44 202L46 199L50 203L58 205L57 207L51 208L53 210L51 211L47 208L30 200L25 205L20 204L19 209L15 211L14 213L18 215L18 219L20 218L23 221L26 225L24 233L27 237L27 240L29 241L30 243L32 241L32 236L36 235L36 238L41 243L40 248L43 252L43 246L45 241L47 241L49 241L53 248L58 250L54 245L56 241L48 221L49 220L51 222L56 224L55 226L57 228L59 225L65 224L62 222L62 219L60 219L61 222L57 220L56 216L57 214L54 213L54 211L66 208L65 210L68 211L73 218L75 219L76 215L74 206L76 205L73 202L68 200L65 196L61 196L60 192L58 191L56 192L55 189L44 186L46 185L49 186L55 182L53 182L54 181L50 177L52 173L56 175L58 178L55 180L61 178L45 154L47 146L45 143L52 138L53 141L50 142L51 145L60 149L61 157L69 158L61 152L61 149L63 148L68 150L71 155L74 157L74 152L69 149L69 146L73 146L78 148L81 152L83 151L75 143L75 145L72 144L71 142L73 141L68 136L71 134L77 136L85 129L88 132L91 132L98 128L99 130L107 132L117 133L118 139L133 138L133 140L121 147L122 149L120 154L131 143L143 136L148 128L157 129L161 126L169 128L170 126L171 129L179 128L181 122L162 113L157 105L159 103L158 99L153 93L153 91L151 87L147 88L147 87L148 84L151 85L150 83L153 82L152 80L156 80L156 66L158 65L161 61L165 60L168 61L170 59L172 43L171 34L177 25L174 30L174 25L179 23L177 22L174 24L175 22L178 21L176 16L179 14L181 15L180 18L182 20L178 21L179 23L182 20L192 18L194 9L192 8L194 7L195 4L195 0L192 0L194 -3L191 -3L192 -11L194 -4L197 -6L196 -8L198 -8L199 -11L202 -10L202 -13L203 -10L205 -13L213 -24L243 -24L247 -22L247 -20L252 -18L263 -20L263 -21L265 -20L267 -23L267 -20L273 -17L275 -21L275 -14L279 -14L277 -12L272 -12L268 -8L266 -9L252 2L254 4L260 3L268 9L271 8L274 10L275 16L273 20L274 25L270 26L277 32L282 32L290 27L293 22L303 19L306 20L310 15L312 16L315 11L319 11L322 14L334 12L334 6L336 4L338 4L337 1L331 0L328 0L325 3L322 0L319 4L315 5L311 3L302 -14L300 -21L302 -23L310 -24L304 -18L308 -20L310 -24L373 -24L379 -19L378 -17L372 -20L370 -19L368 -10L367 -17L369 -18L366 -16L363 -8L360 -6L361 -5L358 -5L358 1L359 -4L361 1L361 5L359 4L358 5L357 3L354 5L349 4L353 6L348 7L349 4L342 1L339 4L341 2L343 3L342 5L341 3L342 5L345 6L337 9L350 14L356 24L363 25L362 22L371 32L383 35L407 60L413 63L416 68L426 70L428 72L430 72L433 78L438 79L446 103L444 110L438 118L426 123L420 127L412 130L401 128L397 125L374 130L365 129L362 125L360 124L357 127L349 124L346 120L341 118L338 118L336 121L333 121L328 115L326 109L324 108L323 110L324 108L316 111L310 108L306 102L307 100L309 100L305 98L298 102L269 100L247 108L245 111L229 119L229 123L225 126L217 126L206 122L203 124L182 122L179 127L184 132L184 133L187 135L199 135L189 136L179 138L175 140L177 143L181 143L182 144L180 146L157 146L156 145L159 143L153 141L151 142L156 145L153 147L147 147L143 143L137 145L132 145L125 150L123 155L120 156L118 170L136 167L136 170L129 175L131 176L135 180L133 184L138 184L138 186L135 188L135 190L131 190L131 192L134 193L135 196L133 195L136 198L141 197L133 200L131 198L130 201L129 198L129 196L125 191L124 192L124 197L127 198L124 201L122 200L121 202L124 202L129 207L130 204L132 204L134 208L137 208L142 210L142 216L137 218L142 220L141 226L146 225L147 229L150 228L150 230L148 231L149 232L142 232L143 237L145 235L149 236L165 235L161 238L159 237L159 241L151 241L145 243L146 244L151 245L152 242L160 241L160 243L157 244L160 245L157 246L159 247L164 243L163 240L166 241L167 239L175 246L178 242L181 244L179 247L181 247L181 252L186 256L192 257L193 258L203 254L209 256L212 248L212 241L214 239L228 241L242 248L249 257L258 261L266 258L274 258L276 257L277 258L281 254L282 256L289 246L298 241L311 248L317 246L319 243L316 244L317 242L321 242L325 238L329 241L329 246L321 253L325 261L322 265L321 266L322 268L319 273L323 277L324 282L322 289L325 299L318 305L318 313L314 315L311 325L306 335L308 336L306 335L305 341L303 342L301 356L296 368L291 376L284 381L276 384L266 384L264 382L262 384L264 384L252 384L246 380L247 380L247 384L243 384L242 382L240 382L237 380L239 374L246 380L240 374L232 376L223 372L220 373L223 375L221 374L220 376L215 377L211 377L220 373L211 376L207 374L208 376L207 375L206 378L204 380L206 381L203 382L201 379L195 384L156 384L155 381L151 383L146 381L144 378L116 372L104 375L99 374L99 371L97 372L99 371L95 363L90 362L76 362L71 359L60 357L60 358L55 354L57 351L56 347L36 339L30 340L27 339L21 343L13 343L3 349L-8 358L-11 368L-6 384ZM-2 204L0 205L0 202L2 206L8 208L5 202L4 201L3 197L2 200L-1 200L-2 204ZM2 194L6 193L5 187L2 194ZM4 197L7 201L5 199L5 196L4 197ZM4 214L8 219L10 216L12 217L6 211L4 214ZM50 187L53 187L53 186L58 187L66 194L67 199L75 199L79 207L82 210L83 209L84 210L86 210L87 205L82 205L80 203L78 192L66 189L60 182L50 187ZM52 253L52 257L55 258L56 256L52 252L52 253ZM61 228L66 226L61 228ZM62 212L66 211L63 210L64 210L62 212ZM62 216L64 218L65 215L62 216ZM64 280L68 282L83 282L90 285L90 289L116 286L119 287L123 282L122 279L120 282L118 281L112 284L110 283L111 279L105 280L97 279L95 276L82 278L80 278L80 275L76 275L78 274L78 272L71 274L69 270L69 274L66 273L64 280ZM66 177L67 180L70 179L66 177ZM71 179L74 175L71 179ZM80 222L83 219L82 218L80 222ZM81 245L86 244L86 242L83 242L83 244L82 242L81 245ZM82 228L84 225L84 223L82 228ZM84 186L86 187L86 189L89 188L85 183L84 186ZM85 137L88 140L91 139L91 135L88 134L85 137ZM88 235L89 238L90 236L88 235ZM89 211L95 218L94 212L91 209L89 211ZM92 244L95 246L92 244ZM92 225L95 225L94 222L92 225ZM95 168L95 170L96 168L95 168ZM95 218L100 222L101 220L95 218ZM96 156L96 160L99 159L100 161L101 158L103 161L105 155L101 157L100 155L96 156ZM98 235L100 236L102 232L99 233L98 235ZM101 243L103 245L104 243L102 241L101 243ZM102 225L105 223L103 222L102 225ZM103 234L106 237L108 235L107 231L103 234ZM103 252L106 252L103 249L105 252L103 252ZM105 142L107 145L110 144L107 142L105 142ZM109 152L111 153L117 151L115 149L109 152ZM111 252L113 252L111 252ZM111 241L118 238L116 237L111 241ZM113 195L116 199L113 203L116 205L120 201L120 195L117 193L113 195ZM113 178L118 180L121 177L122 178L118 180L120 182L128 183L125 180L126 180L129 182L124 172L115 175L113 178ZM116 222L121 221L124 218L118 219L116 222ZM122 246L123 249L126 247L124 245L125 246L122 246ZM127 228L128 226L127 228ZM128 216L129 218L131 217L134 219L138 217L139 215L133 214L128 216ZM132 231L135 233L134 231L132 231ZM134 278L137 276L134 278ZM135 234L136 235L135 237L138 237L135 234ZM135 243L137 244L137 242L145 239L141 239L135 243ZM139 272L140 277L142 275L140 271L142 266L139 272ZM143 251L146 251L145 249L143 251ZM148 138L150 140L152 139L148 138ZM151 258L153 264L158 260L160 260L163 250L156 253L151 258ZM153 247L155 248L155 245L153 247ZM247 285L251 294L261 296L261 298L263 298L264 295L275 292L277 288L285 288L282 286L284 286L281 283L281 281L296 270L276 278L261 277L260 283L253 283L250 286L247 285ZM568 44L571 45L573 44L568 44ZM574 -5L575 1L574 -5ZM617 15L619 19L621 19L618 16L620 12L617 15ZM623 14L624 15L625 11L623 14ZM630 15L633 18L632 15L630 15Z"/>
  <clipPath id="landclip-ottoman-sultanate-abolished"><use href="#land-ottoman-sultanate-abolished"/></clipPath>
  <path id="hl-ottoman-sultanate-abolished-12" d="M365 128L355 128L350 126L351 123L347 124L341 119L329 121L324 108L307 108L307 99L302 99L300 103L255 103L256 106L246 112L242 110L242 114L232 117L224 126L197 123L194 135L187 135L177 139L177 142L180 146L157 146L157 142L154 142L152 148L147 146L141 162L134 169L132 176L135 178L136 186L147 195L145 200L146 209L141 212L142 215L141 217L144 224L142 227L148 226L150 232L169 232L171 236L177 237L178 242L182 242L184 256L198 256L200 253L210 253L211 242L206 241L208 234L215 232L219 237L243 246L252 256L253 261L283 254L289 244L295 239L302 239L303 244L307 242L314 246L322 237L335 236L339 241L344 241L350 246L363 242L367 239L378 239L384 244L399 244L424 232L442 234L451 229L456 229L459 232L462 232L466 227L480 227L485 231L497 227L497 236L502 236L508 231L508 226L505 224L504 217L498 212L502 200L499 198L499 184L496 183L495 176L493 176L494 172L500 171L503 164L508 164L501 155L489 155L485 151L484 141L487 132L483 128L483 124L475 123L468 112L463 112L460 115L442 114L441 115L438 115L436 119L433 117L430 123L420 128L417 126L416 130L403 130L392 124L378 132L367 128Z"/>
</defs>
<rect width="640" height="360" rx="10" fill="#2a1a0c"/>
<g clip-path="url(#frame-ottoman-sultanate-abolished)">
  <rect width="640" height="360" fill="#b9ccc6"/>
  <rect width="640" height="360" fill="url(#waves-ottoman-sultanate-abolished)"/>
  <use href="#land-ottoman-sultanate-abolished" fill="none" stroke="#7e9c98" stroke-width="7" stroke-opacity="0.35" stroke-linejoin="round"/>
  <use href="#land-ottoman-sultanate-abolished" fill="none" stroke="#7e9c98" stroke-width="3.5" stroke-opacity="0.5" stroke-linejoin="round"/>
  <use href="#land-ottoman-sultanate-abolished" fill="#efe2c2" stroke="none"/>
  <g clip-path="url(#landclip-ottoman-sultanate-abolished)"><path d="M154 68L155 79L148 83L147 88L157 99L157 101L147 101L145 97L139 97L128 101L125 106L118 108L119 117L110 121L89 117L86 112L78 112L57 119L52 117L52 103L47 97L43 97L40 92L44 86L43 77L52 70L52 66L41 55L41 43L46 38L51 40L53 49L66 47L78 53L93 51L103 55L113 51L119 43L124 43L130 49L142 51L145 57L151 57L153 60L159 62L158 62Z" fill="rgb(192,211,171)" stroke="#3b2412" stroke-width="0.8" stroke-opacity="0.75" stroke-dasharray="3 2"/><path d="M12 141L7 144L5 151L0 155L-2 162L-11 164L-9 157L-17 148L-20 148L-20 139L-24 139L-24 135L-19 132L-21 121L-19 117L-21 117L-19 106L-22 105L-21 88L-16 83L-11 86L-8 84L3 99L3 108L1 108L2 124L13 135Z" fill="rgb(198,158,162)" stroke="#3b2412" stroke-width="0.8" stroke-opacity="0.75" stroke-dasharray="3 2"/><path d="M208 -20L206 -24L8 -24L-4 -20L-2 -15L8 -9L9 3L21 9L20 20L30 24L32 28L47 24L44 28L43 34L46 38L51 40L53 49L66 47L78 53L93 51L103 55L113 51L119 43L124 43L130 49L142 51L145 57L151 57L153 60L159 62L163 60L161 58L168 58L171 43L169 43L170 32L176 26L175 15L180 15L179 20L190 17L193 1L191 1L192 -7L197 -7L208 -18Z" fill="rgb(216,190,128)" stroke="#3b2412" stroke-width="0.8" stroke-opacity="0.75" stroke-dasharray="3 2"/><path d="M-2 -15L8 -9L9 3L21 9L20 20L30 24L32 28L47 24L44 28L43 34L46 38L41 43L41 55L52 66L52 70L43 77L44 86L40 92L43 97L47 97L52 103L52 117L44 124L34 124L13 135L2 124L1 108L3 108L3 99L-8 84L-11 86L-16 83L-21 88L-22 103L-24 102L-24 -19L-21 -20L-4 -20Z" fill="rgb(205,183,200)" stroke="#3b2412" stroke-width="0.8" stroke-opacity="0.75" stroke-dasharray="3 2"/><path d="M161 261L153 264L152 254L158 249L163 249ZM134 244L138 237L140 237L141 241ZM165 239L162 244L159 244L161 234L159 234L159 232L169 232L171 236L177 237L178 242ZM211 242L206 241L208 234L215 232L219 237L213 237L211 241ZM144 237L141 237L142 232L146 232Z" fill="rgb(234,192,180)" stroke="#3b2412" stroke-width="0.8" stroke-opacity="0.75" stroke-dasharray="3 2"/><path d="M323 334L321 339L322 345L327 345L331 352L339 355L346 353L366 337L376 334L388 325L398 321L400 318L430 302L434 294L439 268L436 258L435 258L436 251L453 242L459 232L462 232L466 227L480 227L485 231L497 227L497 236L502 236L509 231L510 239L514 244L515 251L521 256L522 263L527 263L529 266L539 266L535 272L537 284L530 289L527 297L524 297L523 304L526 305L522 315L525 315L537 328L539 339L548 341L554 349L561 350L567 355L567 358L575 369L571 376L570 384L451 384L438 377L417 363L399 361L395 358L385 365L351 372L349 377L352 379L351 382L353 384L292 384L290 380L290 377L297 371L295 366L300 363L299 357L301 350L305 347L305 337L309 334L313 336L320 329ZM265 295L263 299L249 294L246 289L247 284L253 284L260 281L260 277L278 277L290 269L295 269L294 272L282 281L285 287L277 289L273 294ZM130 146L147 144L141 162L134 169L134 167L119 169L122 148L131 142ZM138 137L136 142L132 141L131 133L140 130L142 124L148 123L150 119L167 117L178 121L178 124L197 123L194 135L189 135L189 132L184 133L181 130L181 126L171 128L162 124L160 128L148 126Z" fill="rgb(217,156,137)" stroke="#3b2412" stroke-width="0.8" stroke-opacity="0.75" stroke-dasharray="3 2"/><path d="M592 198L593 214L598 222L614 224L624 236L629 234L631 236L628 239L644 246L664 247L664 384L570 384L571 376L575 369L567 358L567 355L561 350L554 349L548 341L539 339L537 328L525 315L522 315L526 305L523 304L524 297L527 297L530 289L537 284L535 272L539 266L529 266L527 263L522 263L521 256L515 251L514 244L510 239L509 231L508 231L508 226L505 224L504 217L498 212L502 200L499 198L499 184L496 183L494 172L500 171L503 164L508 164L514 176L531 186L548 184L565 167L578 165L583 171L580 176L581 183L577 184L577 188L582 195L592 197Z" fill="rgb(183,198,144)" stroke="#3b2412" stroke-width="0.8" stroke-opacity="0.75" stroke-dasharray="3 2"/><path d="M51 258L51 251L56 253L56 258ZM79 219L82 217L84 221L80 222ZM4 217L4 212L10 212L10 219ZM89 209L97 215L92 217L89 214ZM-2 200L3 198L8 202L7 207L-2 205ZM82 183L89 184L88 190L82 186ZM113 130L82 128L75 135L68 133L68 139L71 141L69 149L53 144L51 139L45 141L44 153L47 153L46 158L56 171L50 172L49 181L53 179L64 186L61 188L54 184L52 190L57 191L60 197L67 197L65 190L75 191L78 195L78 203L75 203L74 214L63 209L58 209L58 212L55 212L56 219L61 219L62 227L57 227L57 224L53 221L48 221L47 227L51 229L55 244L50 239L45 239L43 244L40 244L37 234L31 234L31 239L27 239L26 231L24 231L26 222L17 214L21 205L27 205L27 200L16 198L11 190L6 188L10 181L0 176L-6 165L-6 164L-2 162L0 155L5 151L7 144L12 141L13 135L34 124L44 124L52 117L57 119L78 112L86 112L89 117L110 121L119 117L118 108L125 106L128 101L139 97L145 97L147 101L157 101L156 103L158 103L158 110L163 110L166 115L165 117L150 119L148 123L142 124L140 130L131 133L131 137L128 135L119 139L118 132ZM85 133L91 133L91 139L86 141ZM78 274L78 277L81 279L110 279L110 284L121 282L119 286L92 287L90 282L68 281L66 274ZM102 236L102 232L107 232L107 236ZM96 222L95 217L100 217L101 222ZM118 217L123 217L123 221L116 222ZM128 214L138 214L137 219L129 219ZM114 197L113 197L114 191L121 195L119 205L114 205ZM143 209L135 207L133 203L125 203L124 191L127 193L129 200L139 200L139 195L134 193L136 188L134 186L147 195L145 200L146 209L143 210ZM121 184L118 183L118 179L112 178L117 172L127 174L130 183ZM97 155L105 155L105 160L95 160ZM110 148L117 148L117 151L110 153Z" fill="rgb(202,178,113)" stroke="#3b2412" stroke-width="0.8" stroke-opacity="0.75" stroke-dasharray="3 2"/><path d="M438 377L417 363L399 361L395 358L385 365L351 372L349 377L352 379L351 382L353 384L451 384L439 377Z" fill="rgb(213,206,155)" stroke="#3b2412" stroke-width="0.8" stroke-opacity="0.75" stroke-dasharray="3 2"/><path d="M400 318L398 321L388 325L376 334L366 337L346 353L339 355L331 352L327 345L322 345L321 339L323 334L320 329L313 336L309 334L312 328L311 321L315 321L314 315L318 313L318 304L321 305L326 299L326 294L324 291L324 282L323 282L325 274L322 272L325 256L322 254L331 246L331 241L328 239L328 237L335 236L339 241L344 241L350 246L363 242L367 239L378 239L384 244L399 244L424 232L442 234L451 229L456 229L459 232L453 242L436 251L435 258L436 258L439 268L434 294L430 302Z" fill="rgb(165,173,190)" stroke="#3b2412" stroke-width="0.8" stroke-opacity="0.75" stroke-dasharray="3 2"/><path d="M-6 384L-5 380L-9 372L-7 360L-9 357L-4 357L-2 350L1 352L3 349L6 349L4 345L9 347L14 342L20 344L24 341L35 339L56 347L55 353L60 358L68 358L77 363L93 363L98 368L98 372L84 384Z" fill="rgb(211,200,211)" stroke="#3b2412" stroke-width="0.8" stroke-opacity="0.75" stroke-dasharray="3 2"/><path d="M333 11L322 13L319 9L313 9L310 15L291 20L282 30L273 30L272 24L274 24L275 11L261 1L254 1L263 -7L277 -11L278 -16L287 -18L295 -15L299 -5L304 -5L305 5L334 1ZM557 11L556 19L548 22L547 30L555 34L562 43L562 55L564 60L563 72L568 77L569 84L575 90L574 94L598 121L598 124L602 128L602 132L607 139L618 141L623 144L611 146L605 153L602 172L600 178L595 178L592 183L592 197L582 195L577 188L577 184L581 183L580 176L583 171L578 165L565 167L548 184L531 186L514 176L508 164L501 155L489 155L485 151L484 141L487 132L483 128L483 124L475 123L468 112L463 112L460 115L442 114L446 101L445 101L445 97L442 97L444 94L440 90L442 83L436 75L433 75L432 72L426 68L417 68L413 60L404 57L389 38L371 30L367 22L357 22L351 13L341 11L341 1L344 1L345 5L361 5L362 -3L358 -5L362 -5L365 -15L374 -20L374 -24L299 -24L299 -20L285 -20L284 -24L275 -24L275 -20L261 -22L259 -18L256 -18L247 -24L212 -24L210 -20L208 -20L206 -24L664 -24L664 73L658 73L654 64L647 66L645 62L645 51L639 45L640 41L636 36L621 30L622 26L626 24L635 28L647 28L648 22L639 19L640 13L648 3L657 3L661 7L664 7L664 -24L599 -24L598 -22L589 -20L588 -15L583 -15L577 -9L567 -9L564 -5L566 -5L565 3L562 1L561 7Z" fill="rgb(165,180,142)" stroke="#3b2412" stroke-width="0.8" stroke-opacity="0.75" stroke-dasharray="3 2"/><use href="#hl-ottoman-sultanate-abolished-12" fill="rgb(88,159,138)" stroke="none"/>
       <use href="#hl-ottoman-sultanate-abolished-12" fill="url(#hatch-ottoman-sultanate-abolished)" stroke="none"/>
       <use href="#hl-ottoman-sultanate-abolished-12" fill="none" stroke="#8f2a17" stroke-width="5" stroke-opacity="0.35" stroke-linejoin="round"/>
       <use href="#hl-ottoman-sultanate-abolished-12" fill="none" stroke="#3b2412" stroke-width="1.8" stroke-linejoin="round"/></g>
  <use href="#land-ottoman-sultanate-abolished" fill="none" stroke="#3b2412" stroke-width="1.1" stroke-linejoin="round"/>
  <text x="299.2" y="133.2" class="lbl hl">오스만 제국</text><text x="96.7" y="85.5" class="lbl">불가리아 공국</text>
  <g transform="translate(299.2 175.2)">
    <path d="M0 -24 L0 -34" transform="rotate(0)" stroke="#8f2a17" stroke-width="2.4" stroke-linecap="round"/><path d="M0 -24 L0 -34" transform="rotate(45)" stroke="#8f2a17" stroke-width="2.4" stroke-linecap="round"/><path d="M0 -24 L0 -34" transform="rotate(90)" stroke="#8f2a17" stroke-width="2.4" stroke-linecap="round"/><path d="M0 -24 L0 -34" transform="rotate(135)" stroke="#8f2a17" stroke-width="2.4" stroke-linecap="round"/><path d="M0 -24 L0 -34" transform="rotate(180)" stroke="#8f2a17" stroke-width="2.4" stroke-linecap="round"/><path d="M0 -24 L0 -34" transform="rotate(225)" stroke="#8f2a17" stroke-width="2.4" stroke-linecap="round"/><path d="M0 -24 L0 -34" transform="rotate(270)" stroke="#8f2a17" stroke-width="2.4" stroke-linecap="round"/><path d="M0 -24 L0 -34" transform="rotate(315)" stroke="#8f2a17" stroke-width="2.4" stroke-linecap="round"/>
    <circle r="20" fill="#8f2a17" fill-opacity="0.35" filter="url(#glow-ottoman-sultanate-abolished)"/>
    <circle r="17" fill="#efe2c2" stroke="#3b2412" stroke-width="2.2"/>
    <g transform="translate(-13 -13) scale(0.26)"><rect x="30" y="80" width="40" height="8" fill="#ddd0ad" stroke="#3b2412" stroke-width="3"/>
    <path d="M34 80 L36 44 L44 38 L50 46 L58 36 L64 42 L66 80 Z" fill="#e8dcc0" stroke="#3b2412" stroke-width="3" stroke-linejoin="round"/>
    <path d="M42 78 L43 48 M50 78 L50 50 M58 78 L58 46" stroke="#3b2412" stroke-width="1.6"/>
    <path d="M70 70 L84 64 L88 74 L76 80 Z" fill="#e8dcc0" stroke="#3b2412" stroke-width="2.5"/><path d="M14 82 L24 74 L30 82 Z" fill="#e8dcc0" stroke="#3b2412" stroke-width="2.5"/>
    <path d="M26 30 L32 36 M74 28 L68 34 M50 18 L50 26" stroke="#8f2a17" stroke-width="3" stroke-linecap="round"/></g>
  </g>
  <rect width="640" height="360" filter="url(#paper-ottoman-sultanate-abolished)"/>
  <rect width="640" height="360" fill="url(#vignette-ottoman-sultanate-abolished)"/>
  <g transform="translate(582 52)" stroke="#3b2412" stroke-width="1.2">
    <circle r="26" fill="#efe2c2" fill-opacity="0.8"/>
    <path d="M0 -30 L6 0 L0 30 L-6 0 Z" fill="#8f2a17"/><path d="M-30 0 L0 6 L30 0 L0 -6 Z" fill="#e9dcb8"/>
    <path d="M0 -30 L6 0 L0 0 Z" fill="#3b2412"/><text y="-33" class="compass">N</text>
  </g>
  <g transform="translate(66 64)">
    <circle r="50" fill="#efe2c2" stroke="#3b2412" stroke-width="2.4"/>
    <circle r="44" fill="none" stroke="#3b2412" stroke-width="1" stroke-dasharray="2 3"/>
    <g transform="translate(-34 -38) scale(0.68)"><rect x="30" y="80" width="40" height="8" fill="#ddd0ad" stroke="#3b2412" stroke-width="3"/>
    <path d="M34 80 L36 44 L44 38 L50 46 L58 36 L64 42 L66 80 Z" fill="#e8dcc0" stroke="#3b2412" stroke-width="3" stroke-linejoin="round"/>
    <path d="M42 78 L43 48 M50 78 L50 50 M58 78 L58 46" stroke="#3b2412" stroke-width="1.6"/>
    <path d="M70 70 L84 64 L88 74 L76 80 Z" fill="#e8dcc0" stroke="#3b2412" stroke-width="2.5"/><path d="M14 82 L24 74 L30 82 Z" fill="#e8dcc0" stroke="#3b2412" stroke-width="2.5"/>
    <path d="M26 30 L32 36 M74 28 L68 34 M50 18 L50 26" stroke="#8f2a17" stroke-width="3" stroke-linecap="round"/></g>
    <path d="M-42 44 L42 44 L36 58 L42 72 L-42 72 L-36 58 Z" fill="#8f2a17" stroke="#3b2412" stroke-width="2"/>
    <text y="63" class="kind">해체</text>
  </g>
  <g transform="translate(320 316)">
    <path d="M-262 -26 L262 -26 C272 -26 276 -18 270 -12 L276 0 L270 12 C276 18 272 26 262 26 L-262 26 C-272 26 -276 18 -270 12 L-276 0 L-270 -12 C-276 -18 -272 -26 -262 -26 Z" fill="#f4e8c8" stroke="#3b2412" stroke-width="2.2"/>
    <path d="M-252 -19 L252 -19 M-252 19 L252 19" stroke="#3b2412" stroke-width="0.8" stroke-dasharray="1 3"/>
    <text y="2" class="title" style="font-size:21px">오스만 술탄제 폐지</text>
  </g>
  <text x="320" y="284" class="year">서기 1922년</text>
</g>
<rect x="10" y="10" width="620" height="340" rx="6" fill="none" stroke="#c9a45c" stroke-width="2"/>
<rect x="15" y="15" width="610" height="330" rx="4" fill="none" stroke="#c9a45c" stroke-width="0.8"/>
<style>
  text { font-family: 'Noto Serif KR', 'Nanum Myeongjo', 'AppleMyungjo', 'Batang', serif; text-anchor: middle; }
  .lbl { font-size: 11px; font-style: italic; fill: #3b2412; fill-opacity: 0.8; paint-order: stroke; stroke: #efe2c2; stroke-width: 3px; }
  .lbl.hl { font-size: 15px; font-weight: 700; font-style: normal; fill: #8f2a17; fill-opacity: 1; letter-spacing: 1px; }
  .title { font-weight: 800; fill: #3b2412; dominant-baseline: middle; }
  .year { font-size: 13px; font-weight: 700; fill: #f4e8c8; paint-order: stroke; stroke: #3b2412; stroke-width: 4px; letter-spacing: 2px; }
  .kind { font-size: 13px; font-weight: 800; fill: #f4e8c8; }
  .compass { font-size: 11px; font-weight: 700; fill: #3b2412; stroke: none; }
</style>
</svg>