<svg xmlns="http://www.w3.org/2000/svg" viewBox="0 0 640 360" width="640" height="360" role="img" aria-label="제1차 폴란드 분할">
<defs>
  <clipPath id="frame-partition-of-poland"><rect x="10" y="10" width="620" height="340" rx="6"/></clipPath>
  <pattern id="waves-partition-of-poland" width="22" height="9" patternUnits="userSpaceOnUse">
    <path d="M0 5 C4 2 7 2 11 5 C15 8 18 8 22 5" fill="none" stroke="#6f8f8f" stroke-width="0.7" stroke-opacity="0.55"/>
  </pattern>
  <pattern id="hatch-partition-of-poland" width="6" height="6" patternUnits="userSpaceOnUse" patternTransform="rotate(35)">
    <path d="M0 0 L0 6" stroke="#3b2412" stroke-width="0.9" stroke-opacity="0.45"/>
  </pattern>
  <filter id="paper-partition-of-poland" x="0" y="0" width="100%" height="100%">
    <feTurbulence type="fractalNoise" baseFrequency="0.9" numOctaves="3" seed="236" result="noise"/>
    <feColorMatrix in="noise" type="matrix" values="0 0 0 0 0.45  0 0 0 0 0.33  0 0 0 0 0.18  0 0 0 0.22 0"/>
  </filter>
  <radialGradient id="vignette-partition-of-poland" cx="50%" cy="48%" r="70%">
    <stop offset="60%" stop-color="#3b2412" stop-opacity="0"/><stop offset="100%" stop-color="#3b2412" stop-opacity="0.45"/>
  </radialGradient>
  <filter id="glow-partition-of-poland"><feGaussianBlur stdDeviation="3"/></filter>
  <path id="land-partition-of-poland" d="M664 384L664 -24L64 -23L64 -20L66 -20L65 -18L66 -18L67 -16L72 -23L69 -19L71 -19L69 -17L72 -18L71 -14L72 -12L75 -20L77 -19L78 -24L85 -24L82 -15L83 -24L78 -21L76 -15L79 -17L79 -16L70 -9L73 -6L75 -9L75 -6L79 -8L73 -5L72 -4L73 -3L72 -2L69 -4L67 1L68 -6L67 -2L66 -3L64 1L66 5L66 3L67 6L67 3L68 7L69 3L70 6L73 5L72 3L70 3L72 0L77 1L74 2L74 5L77 2L79 -3L78 0L82 -1L78 1L76 4L75 5L78 6L76 6L77 7L81 6L77 7L75 10L77 10L73 12L76 14L76 16L77 14L84 13L76 15L76 17L78 18L73 15L71 17L71 15L69 13L70 16L69 15L68 20L70 26L74 28L75 30L83 34L84 31L84 34L86 33L82 37L86 38L85 35L85 37L86 35L88 36L86 37L87 39L91 37L89 40L101 37L102 34L104 37L109 33L115 26L114 24L118 23L116 22L118 22L117 21L121 19L120 17L125 14L123 11L126 13L127 15L129 15L129 13L132 14L132 11L133 12L134 7L135 7L136 6L135 3L132 -1L134 0L134 -3L132 -5L134 -4L136 0L137 -2L135 -9L139 -10L139 -6L138 -9L137 -6L138 1L137 3L140 10L141 9L143 11L145 9L145 11L148 12L149 15L147 11L144 14L146 25L146 31L148 28L148 33L150 28L152 29L149 34L154 31L151 44L153 45L152 47L155 47L154 48L155 56L157 54L161 67L164 69L166 74L168 74L168 78L164 79L167 84L162 82L170 97L168 100L169 103L167 104L173 105L182 103L185 104L188 100L186 96L186 93L190 88L193 89L193 85L201 86L204 84L208 86L208 87L211 83L213 74L216 70L216 64L218 64L216 58L219 53L217 49L219 49L218 47L220 47L216 43L219 46L216 43L218 41L217 40L218 43L221 42L219 39L220 39L218 35L220 37L220 33L221 32L219 32L220 29L216 28L220 29L223 27L221 24L212 24L222 24L225 22L224 21L228 21L228 19L230 19L230 17L231 18L232 10L233 13L234 11L234 17L234 15L236 18L237 13L243 10L241 6L246 5L244 3L243 5L241 4L240 6L237 3L239 2L241 4L241 1L249 -6L251 -6L247 -6L249 -9L249 -11L251 -8L251 -10L249 -11L248 -16L248 -13L246 -17L245 -15L241 -21L245 -19L243 -22L240 -21L239 -24L299 -23L297 -20L300 -20L298 -18L306 -22L303 -17L304 -15L305 -16L305 -14L308 -14L306 -11L309 -13L303 -8L308 -8L312 -15L310 -11L315 -11L322 -15L322 -13L324 -14L324 -12L326 -14L325 -17L327 -15L329 -18L331 -16L331 -18L332 -17L336 -20L338 -19L340 -22L341 -19L343 -20L342 -21L344 -19L343 -24L345 -21L345 -24L350 -23L351 -24L380 -24L383 -22L386 -18L395 -18L398 -16L398 -13L402 -12L401 -9L388 -13L383 -7L378 -9L377 -4L373 -7L372 -5L373 0L370 3L358 2L354 -1L345 -3L343 -1L341 -4L341 -1L338 -4L339 0L337 1L331 1L329 -1L328 2L322 2L320 3L321 5L318 4L319 7L315 7L314 8L311 8L311 12L310 13L312 15L312 13L313 15L310 16L312 19L310 20L316 20L311 22L311 25L314 26L314 31L319 34L323 30L325 31L322 44L323 59L317 65L312 65L308 62L306 56L300 50L299 46L287 51L283 57L283 65L278 69L277 76L278 94L280 101L280 105L281 106L280 108L281 115L277 116L271 114L276 107L270 114L264 114L262 123L256 128L247 128L245 126L243 118L248 122L239 117L228 119L218 124L212 130L189 138L186 138L180 132L180 136L182 135L184 136L184 138L182 137L181 140L186 139L188 141L189 139L192 140L191 146L181 140L182 138L180 136L180 134L179 132L176 134L171 130L170 126L168 128L166 127L163 128L162 131L162 128L168 126L163 125L157 132L158 134L157 132L152 133L149 139L145 136L141 137L139 135L143 132L144 128L139 129L133 126L131 129L131 125L127 125L129 124L129 119L123 116L121 118L123 115L125 117L126 116L125 113L121 112L123 111L122 110L125 107L123 103L124 102L122 102L127 98L123 96L129 97L130 94L127 93L131 93L133 85L135 82L136 84L134 85L136 87L138 84L139 86L142 79L140 76L135 77L133 75L132 78L134 72L126 74L134 72L133 65L128 63L134 65L136 59L135 51L138 47L129 50L121 61L110 62L105 71L110 75L110 73L108 73L109 72L109 70L111 66L117 63L119 65L126 62L128 63L118 66L118 73L120 72L120 77L118 73L116 76L118 72L116 70L111 74L112 78L110 75L106 76L105 72L103 87L104 89L104 87L107 92L105 94L104 90L103 100L106 102L106 99L110 103L111 110L109 109L108 111L111 110L111 119L116 125L114 127L111 127L110 129L115 129L113 132L116 134L116 136L113 136L114 138L121 140L123 145L127 147L123 146L119 140L114 140L111 139L109 143L109 151L110 147L106 145L106 148L105 150L101 143L93 144L90 146L89 151L94 152L91 154L85 149L70 152L63 160L60 161L58 160L55 174L48 182L49 185L46 185L50 188L51 190L48 190L52 193L49 193L46 190L41 191L46 195L47 193L51 194L52 197L51 195L48 194L46 196L42 194L28 201L17 204L15 206L15 210L15 218L17 220L15 220L11 225L-3 230L-5 234L1 235L-6 238L-9 239L-19 237L-22 238L-24 230L-24 298L-21 299L-22 302L-20 304L-21 307L-19 310L-22 309L-23 311L-17 315L-15 322L-13 324L-14 324L-13 326L-16 318L-21 313L-23 331L-22 328L-20 330L-23 333L-24 342L-24 384L35 384L38 381L36 376L39 374L35 370L35 363L39 357L49 351L59 355L57 351L60 355L60 354L62 354L62 351L65 353L62 356L66 355L66 358L77 361L78 360L84 358L83 356L88 352L90 351L91 350L103 345L108 337L112 335L119 336L127 342L127 341L130 343L136 357L136 363L139 363L139 365L145 371L144 373L150 374L159 384L212 384L212 382L210 381L199 381L193 378L184 369L178 351L165 343L161 338L160 327L162 328L163 325L161 324L160 320L158 318L161 314L164 314L162 316L171 312L171 309L175 311L177 309L180 312L176 315L178 322L179 322L178 323L182 329L184 323L184 325L185 325L187 318L190 318L195 322L197 332L204 338L200 337L200 338L198 338L198 339L206 348L209 349L209 352L216 352L222 354L234 365L227 361L224 361L224 362L236 366L244 373L246 371L246 373L245 373L249 375L253 381L259 384L372 384L372 379L369 374L365 371L368 367L370 367L371 358L374 354L378 355L379 353L381 337L384 331L382 334L382 331L385 330L383 331L385 329L384 325L387 325L386 327L387 328L385 330L394 327L394 320L396 318L396 315L394 315L395 313L393 313L394 308L395 312L398 308L402 307L409 297L410 294L417 293L419 291L418 289L419 290L421 289L419 293L425 292L425 287L422 280L426 285L426 293L430 294L435 292L430 296L419 293L422 297L423 295L427 297L423 299L433 303L441 302L443 301L442 302L445 304L448 303L448 306L450 306L449 308L442 309L432 316L447 322L447 331L444 332L452 336L457 333L459 329L466 327L467 328L473 322L478 324L486 323L486 319L489 317L484 315L480 317L478 315L473 319L471 317L464 303L464 301L469 297L469 295L471 298L466 304L479 292L484 293L485 291L489 290L490 292L491 289L496 287L498 288L501 284L508 283L508 285L518 280L513 283L524 280L524 283L526 283L524 285L521 285L512 289L512 291L515 292L511 291L507 293L503 292L506 298L509 298L515 304L509 303L507 309L508 304L506 305L505 310L501 312L501 316L502 313L503 318L500 317L496 318L498 319L494 320L495 318L491 316L489 318L490 317L491 319L493 319L488 320L496 324L500 331L504 331L504 329L510 336L517 338L533 354L537 356L538 359L545 361L549 365L553 367L558 380L557 384L469 384L468 381L469 380L466 378L462 381L444 380L432 384ZM-24 207L-24 206L-21 208L-22 206L-21 208L-19 206L-17 209L-10 207L-2 208L4 204L7 205L8 202L13 200L14 195L7 195L2 195L3 193L-1 193L7 190L7 187L4 187L7 185L8 186L11 185L11 182L9 182L11 182L10 181L12 183L15 180L18 171L17 165L11 161L2 160L-1 164L-6 162L-1 156L-3 150L-10 143L-16 143L-9 143L-4 146L-9 136L-7 134L-11 131L-14 125L-22 122L-24 116ZM4 194L7 195L4 194ZM44 188L49 189L48 187L44 188ZM58 159L60 158L60 155L58 159ZM60 154L63 152L60 154ZM64 7L65 10L66 7L64 3L64 7ZM64 151L69 149L64 151ZM69 11L72 12L69 11ZM70 149L74 149L70 149ZM77 148L80 148L77 148ZM87 144L90 144L87 144ZM90 143L93 143L90 143ZM106 118L107 116L111 116L107 115L108 112L106 118ZM107 103L108 105L107 103ZM107 120L110 120L107 120ZM109 71L112 72L115 66L111 68L109 71ZM124 112L126 113L127 116L130 116L129 113L124 112ZM125 101L129 110L129 109L131 110L130 111L136 113L139 112L140 106L138 103L137 103L139 102L138 99L137 102L135 103L136 101L133 99L125 101ZM132 114L134 117L136 117L132 114ZM136 94L137 95L138 92L136 89L136 94ZM137 117L139 119L142 110L137 117ZM141 58L143 60L145 57L141 58ZM141 96L144 98L142 97L144 100L144 101L145 104L144 105L146 108L152 108L153 110L152 110L154 112L151 111L154 114L152 115L156 123L155 120L158 117L155 115L155 113L158 113L158 110L156 109L162 106L159 102L164 96L163 91L164 88L159 86L154 90L156 91L157 98L155 98L157 96L155 91L153 98L151 96L153 94L151 95L153 90L146 89L149 92L147 95L145 97L141 96ZM143 118L149 122L154 121L151 115L151 118L146 114L144 114L144 117L143 118ZM143 126L147 127L144 124L143 126ZM148 36L149 38L153 37L153 33L148 36ZM149 39L151 41L153 39L149 39ZM158 115L163 113L159 112L160 113L158 115ZM163 99L164 100L165 99L164 97L163 99ZM170 126L172 122L170 126ZM171 129L175 131L176 129L179 128L178 129L179 130L180 129L177 126L179 123L175 123L176 121L173 121L173 123L177 123L176 125L174 124L175 123L174 124L171 124L173 128L171 129ZM187 322L190 331L189 325L188 321L187 322ZM188 330L190 334L188 330ZM189 323L194 325L191 320L189 323ZM192 328L194 330L193 327L192 328ZM192 111L197 113L199 110L193 106L192 111ZM193 330L199 337L193 330ZM194 340L199 346L194 340ZM197 340L200 343L197 340ZM213 354L215 355L213 354ZM215 358L226 359L215 358ZM215 78L216 84L225 56L223 57L215 78ZM215 356L218 357L222 356L216 354L215 356ZM232 15L233 17L232 12L232 15ZM238 59L240 63L241 63L239 67L242 65L242 61L249 55L248 54L247 50L248 47L252 44L251 42L248 42L248 44L247 42L243 45L239 51L238 59ZM242 13L243 14L243 11L242 13ZM242 6L245 7L242 6ZM244 1L244 3L247 0L244 1ZM251 42L252 44L255 41L252 40L251 42ZM276 107L279 103L279 96L276 107ZM289 27L291 31L289 31L289 33L294 36L290 40L291 42L294 40L295 35L301 34L307 28L309 28L303 24L300 25L299 24L295 25L295 27L294 26L292 29L291 27L289 27ZM292 16L296 17L298 22L301 19L302 20L305 18L304 14L301 14L300 12L297 15L292 16ZM305 24L310 26L307 22L305 24ZM306 13L307 15L310 14L306 13ZM395 313L401 309L395 313ZM419 298L420 300L428 302L421 300L419 298ZM434 304L440 304L434 304ZM637 344L640 343L637 344Z"/>
  <clipPath id="landclip-partition-of-poland"><use href="#land-partition-of-poland"/></clipPath>
  <path id="hl-partition-of-poland-27" d="M372 93L374 100L384 103L387 110L392 106L399 110L396 118L390 118L389 124L392 129L395 150L400 158L404 174L408 177L404 186L407 188L407 195L403 206L402 215L399 218L413 219L417 222L415 226L423 229L430 236L437 237L435 241L422 244L420 248L418 249L409 251L407 261L403 261L403 265L393 269L390 279L386 280L384 276L386 271L384 268L379 267L378 261L366 256L364 252L351 253L344 251L343 241L342 241L343 227L341 225L341 220L335 222L332 216L326 216L323 211L318 211L315 208L300 209L301 215L296 215L293 209L291 209L291 206L288 206L287 209L284 211L278 219L271 220L266 226L256 226L255 229L253 229L254 226L252 225L252 220L253 216L251 215L251 212L246 209L247 206L238 201L237 198L231 198L228 188L223 188L220 190L218 188L212 188L212 185L205 174L205 171L203 170L203 167L207 164L214 164L223 158L223 155L228 155L230 161L232 162L232 167L239 170L242 168L245 159L254 158L260 161L264 156L269 158L273 153L276 153L281 149L297 146L298 136L297 136L297 132L300 130L302 116L299 111L296 111L297 108L286 105L281 97L281 93L276 90L283 82L287 80L310 80L319 83L329 80L332 85L342 87L343 90L352 97L358 93ZM252 130L245 133L244 130L241 130L245 125L253 127L252 129Z"/>
</defs>
<rect width="640" height="360" rx="10" fill="#2a1a0c"/>
<g clip-path="url(#frame-partition-of-poland)">
  <rect width="640" height="360" fill="#b9ccc6"/>
  <rect width="640" height="360" fill="url(#waves-partition-of-poland)"/>
  <use href="#land-partition-of-poland" fill="none" stroke="#7e9c98" stroke-width="7" stroke-opacity="0.35" stroke-linejoin="round"/>
  <use href="#land-partition-of-poland" fill="none" stroke="#7e9c98" stroke-width="3.5" stroke-opacity="0.5" stroke-linejoin="round"/>
  <use href="#land-partition-of-poland" fill="#efe2c2" stroke="none"/>
  <g clip-path="url(#landclip-partition-of-poland)"><path d="M95 346L96 347L93 347L95 344Z" fill="rgb(212,204,153)" stroke="#3b2412" stroke-width="0.8" stroke-opacity="0.75" stroke-dasharray="3 2"/><path d="M57 337L58 335L61 336L63 333L65 343L62 344L61 348L58 347L59 341L61 341L62 338L58 337Z" fill="rgb(176,176,115)" stroke="#3b2412" stroke-width="0.8" stroke-opacity="0.75" stroke-dasharray="3 2"/><path d="M567 359L565 360L569 365L578 365L580 363L573 358L567 358Z" fill="rgb(228,197,155)" stroke="#3b2412" stroke-width="0.8" stroke-opacity="0.75" stroke-dasharray="3 2"/><path d="M123 280L122 283L124 283L123 281Z" fill="rgb(164,180,128)" stroke="#3b2412" stroke-width="0.8" stroke-opacity="0.75" stroke-dasharray="3 2"/><path d="M565 359L568 357L560 358L544 351L536 351L534 353L537 354L539 359L553 361L559 369L559 371L562 369L562 363L565 360Z" fill="rgb(187,206,209)" stroke="#3b2412" stroke-width="0.8" stroke-opacity="0.75" stroke-dasharray="3 2"/><path d="M106 144L108 146L108 150L107 150L108 161L106 161L105 164L97 155L99 152L99 147L104 147ZM152 116L152 111L149 108L142 106L143 100L141 98L141 95L146 93L147 88L151 88L153 93L154 87L162 85L164 97L159 100L161 103L161 108L157 110L157 119L152 121L141 119L142 113ZM133 83L133 90L128 93L128 97L126 97L126 100L137 98L137 101L140 103L141 114L139 119L136 119L136 113L128 111L129 113L128 129L126 133L130 132L132 125L143 127L143 132L140 136L136 136L134 144L129 143L127 147L121 144L119 140L114 140L113 132L109 130L109 127L113 125L113 122L109 118L108 108L109 108L109 105L107 101L103 101L103 98L102 98L103 87L102 87L102 73L105 72L104 68L109 60L121 60L124 54L124 51L127 51L128 48L135 46L136 58L133 63L133 75L141 77L140 85L134 87L134 83ZM138 90L138 95L134 95L135 90ZM192 106L198 108L197 113L192 111ZM164 -24L161 -14L154 -9L154 -5L153 -5L154 6L152 6L151 15L144 12L144 10L140 10L137 4L137 -3L135 -3L134 10L132 10L129 15L124 14L123 17L121 17L121 21L117 21L117 24L115 24L111 32L97 41L83 39L82 33L75 32L69 24L68 14L74 14L75 4L73 3L73 6L64 6L65 -7L64 -7L64 -12L68 -16L65 -20L60 -18L60 -24Z" fill="rgb(226,178,166)" stroke="#3b2412" stroke-width="0.8" stroke-opacity="0.75" stroke-dasharray="3 2"/><path d="M180 360L182 363L177 364L174 367L171 367L168 371L170 379L174 380L175 383L181 384L160 384L158 379L152 377L150 373L152 369L157 366L154 355L158 354L159 351L153 347L152 338L149 336L141 338L147 325L159 325L158 335L160 340L168 347L170 346L170 348L174 349L180 357L180 359Z" fill="rgb(146,189,187)" stroke="#3b2412" stroke-width="0.8" stroke-opacity="0.75" stroke-dasharray="3 2"/><path d="M98 341L102 341L103 344L96 347L96 346ZM129 341L125 341L118 335L110 335L108 337L107 335L110 331L115 331L126 338Z" fill="rgb(225,195,199)" stroke="#3b2412" stroke-width="0.8" stroke-opacity="0.75" stroke-dasharray="3 2"/><path d="M135 287L133 285L132 288L128 288L122 280L124 275L116 271L109 271L108 273L105 272L103 273L104 275L103 279L98 279L96 273L94 276L88 275L88 280L86 283L90 287L82 288L76 293L76 301L79 297L84 297L87 299L88 306L94 307L102 305L103 301L107 297L109 302L111 302L115 307L117 302L121 301L122 305L131 305L134 298L136 299Z" fill="rgb(200,160,165)" stroke="#3b2412" stroke-width="0.8" stroke-opacity="0.75" stroke-dasharray="3 2"/><path d="M104 343L102 341L98 341L96 346L94 344L88 352L84 349L85 344L81 342L81 340L86 337L83 332L84 327L78 322L74 321L73 316L68 313L70 307L79 297L84 297L87 299L88 306L94 307L102 305L103 301L107 297L109 302L111 302L112 313L117 321L119 321L119 327L115 331L110 331L107 335L107 338L105 340Z" fill="rgb(171,210,197)" stroke="#3b2412" stroke-width="0.8" stroke-opacity="0.75" stroke-dasharray="3 2"/><path d="M151 273L145 277L137 273L138 271L135 269L136 260L135 253L133 248L129 245L129 243L134 240L137 247L142 248L143 245L141 244L146 243L146 240L143 240L143 236L146 234L145 229L152 226L154 220L158 220L161 225L161 230L163 232L163 234L171 240L174 245L174 248L172 248L173 253L180 253L181 256L172 264L169 264L169 271L171 272L170 275L163 272Z" fill="rgb(177,177,115)" stroke="#3b2412" stroke-width="0.8" stroke-opacity="0.75" stroke-dasharray="3 2"/><path d="M155 218L155 212L159 211L159 208L157 206L155 209L153 209L153 206L159 203L163 205L162 199L157 196L154 199L154 203L146 202L145 198L136 198L134 201L130 199L137 195L143 196L143 190L146 189L146 196L150 199L157 195L156 190L160 190L161 185L159 183L159 179L165 179L164 182L168 183L175 179L180 179L182 176L188 177L189 183L194 183L196 180L197 188L195 188L195 190L200 193L199 202L197 205L191 205L190 202L187 202L185 206L175 209L167 216L161 216L160 219L158 219ZM182 180L187 183L186 179L182 179Z" fill="rgb(194,196,137)" stroke="#3b2412" stroke-width="0.8" stroke-opacity="0.75" stroke-dasharray="3 2"/><path d="M146 141L147 136L149 138L148 141ZM162 125L170 125L171 121L175 119L178 122L178 127L180 127L179 130L174 130L178 140L170 140L169 136L167 136L162 127ZM245 41L251 41L251 44L248 48L249 54L243 60L242 67L238 67L237 51L240 44ZM326 -16L325 -12L319 -14L315 -11L305 -9L305 -14L295 -12L296 -24L245 -24L244 -18L247 -18L251 -12L251 -5L248 -5L245 1L242 3L243 12L239 12L236 17L230 17L230 21L225 21L224 24L221 24L221 28L219 28L221 32L221 39L218 42L219 54L217 58L216 68L220 63L223 54L225 54L225 58L220 70L220 77L216 83L214 83L214 77L213 77L211 83L208 87L193 85L193 90L186 92L187 105L167 105L166 101L168 100L168 95L162 87L163 82L165 82L164 77L166 77L166 73L161 70L161 67L158 63L157 56L153 54L152 37L149 37L149 32L145 30L144 14L144 12L151 15L152 6L154 6L153 -5L154 -5L154 -9L161 -14L164 -24L355 -24L348 -24L342 -20Z" fill="rgb(165,187,199)" stroke="#3b2412" stroke-width="0.8" stroke-opacity="0.75" stroke-dasharray="3 2"/><path d="M133 189L128 195L125 195L125 198L121 199L121 195L124 190L120 186L130 186L132 183L136 185L136 189L135 189ZM142 192L140 192L140 189L142 189ZM127 171L126 173L127 177L124 177L125 180L121 183L118 182L118 185L113 185L111 182L111 180L114 179L113 168L104 168L105 177L102 180L99 179L99 171L96 168L97 164L102 167L106 161L112 161L112 158L108 156L107 143L112 144L113 140L119 140L121 144L133 150L134 146L133 144L135 143L135 140L140 143L140 147L137 150L148 155L148 158L140 159L141 170L137 170L138 173Z" fill="rgb(218,198,208)" stroke="#3b2412" stroke-width="0.8" stroke-opacity="0.75" stroke-dasharray="3 2"/><path d="M86 273L88 272L88 276ZM96 272L97 267L101 272L96 275L96 273ZM90 245L91 248L89 248L89 245ZM84 241L83 237L85 234L80 234L80 229L83 225L83 222L76 219L80 213L76 215L75 203L71 202L71 209L74 216L68 215L59 223L57 222L57 219L62 215L62 209L64 209L64 203L67 198L71 196L72 199L75 199L76 196L84 196L87 193L87 189L81 185L85 183L84 180L88 176L84 167L89 165L91 152L93 153L93 156L97 155L104 164L102 167L97 164L96 168L92 168L92 173L96 173L96 179L101 179L104 183L107 183L107 180L111 180L113 185L118 185L118 182L121 183L125 180L124 177L127 177L126 173L127 171L138 173L137 170L141 170L141 174L136 176L136 179L141 185L138 189L136 189L136 185L132 183L130 186L120 186L124 190L121 195L121 199L125 198L125 195L128 195L133 189L135 189L135 193L142 192L142 189L148 186L148 189L143 190L143 196L137 195L130 199L134 201L136 198L145 198L146 202L154 203L154 199L157 196L162 199L163 205L159 203L153 206L153 209L155 209L157 206L159 208L159 211L155 212L155 218L158 220L154 220L152 226L145 229L146 234L143 236L143 240L146 240L146 243L141 244L143 245L142 248L137 247L134 240L129 243L129 245L133 248L135 253L136 260L132 260L131 264L134 265L136 261L135 269L138 271L137 273L135 273L134 279L131 279L128 275L124 275L116 271L119 269L119 265L117 265L117 268L115 265L114 271L109 271L108 273L105 272L104 263L105 260L102 260L99 263L98 259L98 255L101 255L100 251L104 248L104 245ZM105 264L105 265L108 265L107 263L105 263ZM133 257L131 256L131 259L133 259ZM129 260L128 256L122 256L122 261L126 259ZM121 267L123 268L123 265L122 267ZM120 256L118 259L118 260L121 260ZM109 260L112 261L113 259L109 259ZM115 261L116 260L114 259L114 261ZM112 265L111 268L113 268L112 267ZM112 255L110 252L109 253L110 255ZM106 259L108 257L105 257L106 260ZM108 253L106 253L107 256L108 255ZM89 190L89 196L92 199L95 199L96 195L94 192L97 192L96 189ZM81 192L84 190L84 193L81 193ZM73 186L74 189L72 189L72 186ZM112 159L112 161L108 161L108 156L111 156ZM98 144L98 143L101 143L103 146L98 147ZM108 138L113 140L112 144L107 143L107 141ZM129 343L129 340L131 338L130 331L135 325L146 323L147 327L144 330L143 335L141 336L140 344L137 347L137 346L132 344L131 342ZM163 272L170 275L171 272L169 271L169 264L172 264L175 272L175 280L178 280L179 284L171 285L167 283L158 284L158 280L163 277ZM173 253L172 248L174 248L174 245L177 245L184 252L181 256L180 253ZM157 190L156 192L150 192L149 189L154 189L160 183L161 188L160 190L158 190ZM129 143L134 146L133 150L127 147ZM150 150L147 149L144 153L137 150L140 147L140 143L135 138L144 135L147 136L146 141L149 141L148 133L161 127L167 136L170 138L169 141L171 144L177 144L172 152L158 150L155 146L152 146ZM126 133L128 129L128 124L132 124L130 132Z" fill="rgb(223,204,151)" stroke="#3b2412" stroke-width="0.8" stroke-opacity="0.75" stroke-dasharray="3 2"/><path d="M62 227L68 234L85 234L83 237L84 241L104 245L104 248L98 255L96 273L94 276L88 275L88 272L86 273L88 276L88 280L76 293L76 301L70 307L68 313L73 316L74 321L78 322L84 327L83 332L86 337L81 340L81 342L85 344L84 349L86 349L87 352L83 354L82 358L72 359L70 357L67 357L67 354L56 352L50 353L50 351L46 351L34 359L36 371L27 373L9 365L-5 367L-9 365L-13 365L-20 360L-24 360L-23 321L-22 316L-20 315L-24 299L-24 230L-23 236L-6 237L-6 232L-3 227L8 225L14 219L13 209L16 202L27 199L29 208L36 208L42 216L48 216L50 219L50 225L55 225L58 222L59 227ZM90 245L89 248L91 248L91 245ZM58 347L61 348L62 344L65 343L63 333L61 336L58 335L57 337L62 338L61 341L59 341Z" fill="rgb(165,173,190)" stroke="#3b2412" stroke-width="0.8" stroke-opacity="0.75" stroke-dasharray="3 2"/><path d="M74 209L71 209L71 202L75 203L75 208L74 208ZM76 193L77 196L74 196L74 193ZM82 183L82 185L75 183L74 186L72 186L73 189L72 195L68 198L62 193L53 193L48 198L41 198L40 193L45 193L40 192L40 189L45 189L43 186L46 186L46 183L48 183L48 180L51 177L51 174L54 170L55 162L58 161L56 156L57 155L60 155L59 159L62 167L63 164L67 162L64 156L69 150L85 147L91 153L89 165L84 167L88 176L83 180L85 183L83 183Z" fill="rgb(235,185,132)" stroke="#3b2412" stroke-width="0.8" stroke-opacity="0.75" stroke-dasharray="3 2"/><path d="M228 358L225 359L224 354L220 355L220 352L218 351L209 353L209 348L206 347L205 344L202 346L203 343L199 342L198 336L208 342L214 341L216 342L224 353ZM187 332L188 325L190 326L190 333ZM190 322L190 321L192 321L193 323ZM183 323L182 326L180 326L177 315L185 315L180 320ZM158 315L158 321L161 323L161 328L159 328L159 325L146 325L144 321L137 316L135 317L135 321L127 318L125 313L122 313L120 311L120 307L122 305L131 305L134 298L136 299L135 308L140 311L143 310L147 303L152 303L154 301L154 296L157 292L177 294L177 297L175 298L176 302L174 303L174 308L171 308L170 312L167 311L165 313Z" fill="rgb(163,199,174)" stroke="#3b2412" stroke-width="0.8" stroke-opacity="0.75" stroke-dasharray="3 2"/><path d="M258 384L248 375L247 365L240 367L238 361L230 361L216 342L214 342L211 332L207 330L208 320L210 320L213 323L216 320L225 320L234 323L245 322L249 327L253 325L259 326L262 330L264 330L266 325L268 323L271 325L272 328L274 330L283 327L289 331L290 333L295 333L298 330L300 331L298 333L298 337L303 341L304 347L313 346L320 349L330 348L337 351L343 348L349 342L365 342L370 340L371 333L369 332L369 330L372 328L372 323L370 321L370 317L376 316L377 318L381 320L387 316L393 316L393 326L386 328L386 325L383 325L383 332L380 336L378 353L374 353L375 355L371 357L370 366L365 369L365 372L371 379L371 384L435 384L434 382L463 382L465 379L468 379L468 384L558 384L558 378L555 378L557 376L554 373L556 369L547 360L553 361L559 369L558 375L561 379L560 384Z" fill="rgb(158,190,164)" stroke="#3b2412" stroke-width="0.8" stroke-opacity="0.75" stroke-dasharray="3 2"/><path d="M464 312L466 312L467 318L477 318L483 316L483 320L485 322L478 323L476 321L472 321L470 325L458 328L452 335L446 335L448 322L438 316L434 316L440 311L449 308L449 305L455 303L460 306L463 312ZM545 326L543 317L531 320L523 325L497 325L495 322L490 322L490 316L492 316L493 318L503 318L503 313L501 312L504 312L505 306L511 302L512 298L506 296L505 293L514 293L515 288L527 284L527 279L526 276L542 279L544 281L551 284L553 315L556 321L556 322L552 322ZM500 283L496 285L496 288L492 287L491 289L475 292L470 299L463 299L463 302L454 302L453 299L448 299L447 302L439 301L437 303L435 303L427 298L423 298L424 296L428 296L431 292L438 293L449 288L454 280L454 276L458 273L467 275L467 272L474 272L479 273L480 277L490 279L493 281L500 280L501 276L505 273L523 276L522 279L516 281Z" fill="rgb(206,161,131)" stroke="#3b2412" stroke-width="0.8" stroke-opacity="0.75" stroke-dasharray="3 2"/><path d="M98 259L99 263L102 260L105 260L104 263L105 272L103 273L104 275L103 279L98 279L96 275L101 272L96 267L97 259ZM112 265L113 268L111 268L111 265ZM108 265L105 265L105 263L108 264ZM113 259L112 261L109 260L109 259ZM105 257L108 257L106 259L106 260ZM108 255L107 256L106 253L108 253ZM110 255L109 253L110 252L112 255ZM59 223L68 215L74 216L71 209L74 209L74 208L76 215L80 213L76 219L83 222L83 225L80 229L80 234L68 234L62 227L59 227ZM42 216L36 208L29 208L28 199L39 193L41 198L48 198L53 193L62 193L67 198L64 203L64 209L62 209L62 215L59 216L55 225L50 225L50 219L48 216ZM72 196L73 196L76 198L71 198ZM150 373L147 372L147 369L143 369L141 360L136 360L132 344L137 346L137 347L140 344L141 338L149 336L152 338L153 347L159 351L158 354L154 355L157 366L152 369ZM135 325L129 321L117 321L112 313L111 305L115 307L117 302L121 301L122 305L120 307L120 311L122 313L125 313L127 318L135 321L135 317L137 316L145 323ZM278 219L284 211L287 209L288 206L291 206L291 209L293 209L296 215L301 215L300 209L315 208L318 211L323 211L326 216L332 216L335 222L341 220L341 225L343 227L342 241L343 241L344 251L338 247L335 248L339 253L339 257L332 264L330 275L332 277L332 281L340 283L341 288L344 289L344 294L351 302L351 310L344 312L343 315L337 315L336 317L332 312L327 312L320 315L311 315L311 317L306 320L301 318L298 330L295 333L290 333L289 331L283 327L274 330L272 328L271 325L268 323L266 325L264 330L262 330L259 326L253 325L249 327L245 322L234 323L225 320L216 320L213 323L210 320L208 320L207 330L211 332L214 341L208 342L195 332L195 325L193 325L193 322L191 321L191 317L186 317L186 323L183 323L180 320L185 315L179 315L179 310L174 308L174 303L176 302L175 298L177 297L177 294L157 292L154 296L154 301L152 303L147 303L143 310L140 311L135 308L136 299L135 287L133 285L132 288L128 288L123 281L124 275L128 275L131 279L134 279L135 273L145 277L151 273L163 272L163 277L158 280L158 284L166 283L171 285L179 284L178 280L175 280L175 272L172 264L184 252L177 245L174 245L171 240L163 234L163 232L161 230L161 225L158 220L161 216L167 216L175 209L185 206L187 202L190 202L191 205L197 205L199 202L202 208L215 211L213 216L217 220L221 220L222 215L226 215L230 219L234 219L233 223L244 226L248 232L248 234L256 226L266 226L271 220ZM117 265L119 265L119 269L114 271L115 265L117 268ZM122 267L123 265L123 268L121 267ZM136 261L134 265L131 264L132 260L136 260ZM114 261L114 259L116 260L115 261ZM122 261L122 256L128 256L129 260L126 259ZM120 256L121 260L118 260L118 259ZM131 259L131 256L133 257L132 259Z" fill="rgb(234,224,198)" stroke="#3b2412" stroke-width="0.8" stroke-opacity="0.75" stroke-dasharray="3 2"/><path d="M-24 384L-24 360L-20 360L-13 365L-9 365L-5 367L9 365L14 369L15 372L19 370L27 373L36 371L36 382L34 384ZM135 325L130 331L131 338L128 340L115 331L119 327L119 321L129 321Z" fill="rgb(230,206,138)" stroke="#3b2412" stroke-width="0.8" stroke-opacity="0.75" stroke-dasharray="3 2"/><path d="M512 269L524 245L498 244L494 241L488 244L487 241L483 241L471 233L466 238L457 243L454 253L447 252L444 255L439 253L438 256L432 253L421 253L407 256L406 267L409 273L440 280L442 279L449 284L454 280L454 276L458 273L467 275L467 272L474 272L479 273L480 277L490 279L493 281L500 280L501 276L505 273L513 273Z" fill="rgb(223,203,153)" stroke="#3b2412" stroke-width="0.8" stroke-opacity="0.75" stroke-dasharray="3 2"/><path d="M86 283L90 287L82 288L84 284L86 284ZM89 196L89 190L96 189L97 192L94 192L96 195L95 199L92 199ZM74 189L75 183L81 185L87 189L87 193L84 196L77 196L74 193L74 196L71 196L73 189ZM81 193L84 193L84 190L81 192ZM187 183L182 180L182 179L186 179ZM114 170L113 171L114 179L107 180L107 183L104 183L102 179L105 177L104 168L113 168ZM96 173L92 173L92 168L96 168L99 171L99 179L96 179ZM248 232L244 226L233 223L234 219L230 219L226 215L222 215L221 220L217 220L213 216L215 211L202 208L199 202L200 193L195 190L195 188L197 188L196 180L194 183L189 183L188 177L182 176L180 179L175 179L168 183L164 182L165 179L159 179L159 183L154 189L149 189L150 192L156 192L157 195L150 199L146 196L148 186L140 189L140 192L135 193L135 189L138 189L141 185L136 179L136 176L141 174L140 159L148 158L148 155L144 153L147 149L150 150L152 146L155 146L158 150L172 152L177 144L171 144L169 141L170 140L178 140L176 132L185 135L185 140L183 141L190 143L190 136L197 132L210 130L216 122L226 118L243 116L243 121L245 125L241 130L244 130L245 133L252 130L252 129L257 129L258 125L262 125L262 122L264 122L262 121L263 113L273 111L274 114L277 114L280 105L277 98L277 92L281 93L281 97L286 105L297 108L296 111L299 111L302 116L300 130L297 132L297 136L298 136L297 146L281 149L276 153L273 153L269 158L264 156L260 161L254 158L245 159L242 168L239 170L232 167L232 162L230 161L228 155L223 155L223 158L214 164L207 164L203 167L203 170L205 171L205 174L212 185L212 188L218 188L220 190L223 188L228 188L231 198L237 198L238 201L247 206L246 209L251 212L251 215L253 216L252 225L254 226L248 234ZM98 143L99 152L93 156L93 153L87 150L87 146L90 143L97 143Z" fill="rgb(176,173,160)" stroke="#3b2412" stroke-width="0.8" stroke-opacity="0.75" stroke-dasharray="3 2"/><path d="M-24 118L-23 121L-15 122L-9 132L-6 146L-2 150L-2 156L-5 159L-4 162L-1 162L1 158L9 158L16 162L18 173L13 182L10 182L10 186L5 186L6 192L1 192L13 195L12 201L1 208L-24 206L-21 208L-22 212L-24 212Z" fill="rgb(217,156,137)" stroke="#3b2412" stroke-width="0.8" stroke-opacity="0.75" stroke-dasharray="3 2"/><path d="M483 320L483 316L486 316L485 321ZM384 268L386 271L384 276L386 280L390 279L393 269L403 265L403 261L407 261L406 267L409 273L423 276L424 283L426 285L425 292L411 292L403 306L400 307L397 311L394 311L393 316L387 316L381 320L377 318L376 316L370 317L370 321L372 323L372 328L369 330L369 332L371 333L370 340L365 342L349 342L343 348L337 351L330 348L320 349L313 346L304 347L303 341L298 337L298 333L300 331L298 330L301 318L306 320L311 317L311 315L320 315L327 312L332 312L336 317L337 315L343 315L344 312L351 310L351 302L344 294L344 289L341 288L340 283L332 281L332 277L330 275L332 264L339 257L339 253L335 248L338 247L344 251L351 253L364 252L366 256L378 261L379 267ZM293 26L294 23L308 24L306 30L295 35L292 42L290 42L291 35L289 33L289 26ZM294 14L298 10L302 12L303 19L301 21L296 21L296 17L293 17ZM664 -24L664 293L659 294L656 301L650 302L650 306L646 306L643 310L636 310L635 317L633 316L629 327L624 330L623 335L628 337L633 343L633 346L628 346L621 349L620 353L618 352L616 355L602 347L598 347L597 349L584 348L582 351L580 346L578 346L580 342L576 331L572 330L571 327L565 323L556 321L553 315L551 284L544 281L542 279L526 276L527 279L527 284L523 285L524 280L522 279L523 276L513 273L512 269L514 264L524 245L498 244L494 241L488 244L487 241L483 241L471 233L466 238L457 243L454 253L447 252L444 255L439 253L438 256L432 253L421 253L407 256L409 251L418 249L420 248L422 244L435 241L437 237L430 236L423 229L415 226L417 222L413 219L399 218L402 215L403 206L407 195L407 188L404 186L408 177L404 174L400 158L395 150L392 129L389 124L390 118L396 118L399 110L392 106L387 110L384 103L374 100L372 93L358 93L355 90L350 90L348 82L336 80L335 77L332 77L326 70L316 73L314 70L311 70L311 65L313 65L321 58L322 33L316 33L313 28L310 26L310 6L317 4L320 1L336 -1L336 -5L351 -3L356 1L370 1L371 -7L376 -7L377 -11L383 -9L388 -14L387 -12L398 -9L401 -11L401 -14L398 -12L399 -16L394 -20L385 -16L379 -24Z" fill="rgb(165,180,142)" stroke="#3b2412" stroke-width="0.8" stroke-opacity="0.75" stroke-dasharray="3 2"/><path d="M352 97L343 90L342 87L332 85L329 80L319 83L310 80L287 80L283 82L280 87L276 88L276 78L277 78L277 67L281 63L283 53L288 48L298 44L310 63L312 63L311 70L314 70L316 73L326 70L332 77L335 77L336 80L348 82L350 90L355 90L358 93Z" fill="rgb(215,204,153)" stroke="#3b2412" stroke-width="0.8" stroke-opacity="0.75" stroke-dasharray="3 2"/><use href="#hl-partition-of-poland-27" fill="rgb(208,111,120)" stroke="none"/>
       <use href="#hl-partition-of-poland-27" fill="url(#hatch-partition-of-poland)" stroke="none"/>
       <use href="#hl-partition-of-poland-27" fill="none" stroke="#8f2a17" stroke-width="5" stroke-opacity="0.35" stroke-linejoin="round"/>
       <use href="#hl-partition-of-poland-27" fill="none" stroke="#3b2412" stroke-width="1.8" stroke-linejoin="round"/></g>
  <use href="#land-partition-of-poland" fill="none" stroke="#3b2412" stroke-width="1.1" stroke-linejoin="round"/>
  <text x="319.8" y="143.2" class="lbl hl">폴란드-리투아니아</text><text x="201.0" y="149.2" class="lbl">프로이센 왕국</text><text x="116.8" y="221.8" class="lbl">신성 로마 제국</text><text x="462.7" y="252.0" class="lbl">자포리자 카자크</text><text x="157.3" y="255.5" class="lbl">바이에른 공국</text><text x="177.6" y="194.4" class="lbl">작센 선제후국</text><text x="309.1" y="71.8" class="lbl">쿠를란트-젬갈렌 공국</text>
  <g transform="translate(319.8 185.2)">
    <path d="M0 -24 L0 -34" transform="rotate(0)" stroke="#8f2a17" stroke-width="2.4" stroke-linecap="round"/><path d="M0 -24 L0 -34" transform="rotate(45)" stroke="#8f2a17" stroke-width="2.4" stroke-linecap="round"/><path d="M0 -24 L0 -34" transform="rotate(90)" stroke="#8f2a17" stroke-width="2.4" stroke-linecap="round"/><path d="M0 -24 L0 -34" transform="rotate(135)" stroke="#8f2a17" stroke-width="2.4" stroke-linecap="round"/><path d="M0 -24 L0 -34" transform="rotate(180)" stroke="#8f2a17" stroke-width="2.4" stroke-linecap="round"/><path d="M0 -24 L0 -34" transform="rotate(225)" stroke="#8f2a17" stroke-width="2.4" stroke-linecap="round"/><path d="M0 -24 L0 -34" transform="rotate(270)" stroke="#8f2a17" stroke-width="2.4" stroke-linecap="round"/><path d="M0 -24 L0 -34" transform="rotate(315)" stroke="#8f2a17" stroke-width="2.4" stroke-linecap="round"/>
    <circle r="20" fill="#8f2a17" fill-opacity="0.35" filter="url(#glow-partition-of-poland)"/>
    <circle r="17" fill="#efe2c2" stroke="#3b2412" stroke-width="2.2"/>
    <g transform="translate(-13 -13) scale(0.26)"><path d="M16 22 L46 22 L40 38 L50 50 L42 64 L48 82 L16 82 Z" fill="#e8dcc0" stroke="#3b2412" stroke-width="3" stroke-linejoin="round"/>
    <path d="M56 18 L86 18 L86 78 L58 78 L52 60 L60 46 L50 34 Z" fill="#d9c79d" stroke="#3b2412" stroke-width="3" stroke-linejoin="round"/>
    <path d="M24 34 L36 36 M24 50 L34 48 M24 66 L36 68 M66 30 L78 30 M66 46 L78 50 M66 62 L78 62" stroke="#3b2412" stroke-width="1.6"/></g>
  </g>
  <rect width="640" height="360" filter="url(#paper-partition-of-poland)"/>
  <rect width="640" height="360" fill="url(#vignette-partition-of-poland)"/>
  <g transform="translate(582 52)" stroke="#3b2412" stroke-width="1.2">
    <circle r="26" fill="#efe2c2" fill-opacity="0.8"/>
    <path d="M0 -30 L6 0 L0 30 L-6 0 Z" fill="#8f2a17"/><path d="M-30 0 L0 6 L30 0 L0 -6 Z" fill="#e9dcb8"/>
    <path d="M0 -30 L6 0 L0 0 Z" fill="#3b2412"/><text y="-33" class="compass">N</text>
  </g>
  <g transform="translate(66 64)">
    <circle r="50" fill="#efe2c2" stroke="#3b2412" stroke-width="2.4"/>
    <circle r="44" fill="none" stroke="#3b2412" stroke-width="1" stroke-dasharray="2 3"/>
    <g transform="translate(-34 -38) scale(0.68)"><path d="M16 22 L46 22 L40 38 L50 50 L42 64 L48 82 L16 82 Z" fill="#e8dcc0" stroke="#3b2412" stroke-width="3" stroke-linejoin="round"/>
    <path d="M56 18 L86 18 L86 78 L58 78 L52 60 L60 46 L50 34 Z" fill="#d9c79d" stroke="#3b2412" stroke-width="3" stroke-linejoin="round"/>
    <path d="M24 34 L36 36 M24 50 L34 48 M24 66 L36 68 M66 30 L78 30 M66 46 L78 50 M66 62 L78 62" stroke="#3b2412" stroke-width="1.6"/></g>
    <path d="M-42 44 L42 44 L36 58 L42 72 L-42 72 L-36 58 Z" fill="#8f2a17" stroke="#3b2412" stroke-width="2"/>
    <text y="63" class="kind">분할</text>
  </g>
  <g transform="translate(320 316)">
    <path d="M-262 -26 L262 -26 C272 -26 276 -18 270 -12 L276 0 L270 12 C276 18 272 26 262 26 L-262 26 C-272 26 -276 18 -270 12 L-276 0 L-270 -12 C-276 -18 -272 -26 -262 -26 Z" fill="#f4e8c8" stroke="#3b2412" stroke-width="2.2"/>
    <path d="M-252 -19 L252 -19 M-252 19 L252 19" stroke="#3b2412" stroke-width="0.8" stroke-dasharray="1 3"/>
    <text y="2" class="title" style="font-size:21px">제1차 폴란드 분할</text>
  </g>
  <text x="320" y="284" class="year">서기 1772년</text>
</g>
<rect x="10" y="10" width="620" height="340" rx="6" fill="none" stroke="#c9a45c" stroke-width="2"/>
<rect x="15" y="15" width="610" height="330" rx="4" fill="none" stroke="#c9a45c" stroke-width="0.8"/>
<style>
  text { font-family: 'Noto Serif KR', 'Nanum Myeongjo', 'AppleMyungjo', 'Batang', serif; text-anchor: middle; }
  .lbl { font-size: 11px; font-style: italic; fill: #3b2412; fill-opacity: 0.8; paint-order: stroke; stroke: #efe2c2; stroke-width: 3px; }
  .lbl.hl { font-size: 15px; font-weight: 700; font-style: normal; fill: #8f2a17; fill-opacity: 1; letter-spacing: 1px; }
  .title { font-weight: 800; fill: #3b2412; dominant-baseline: middle; }
  .year { font-size: 13px; font-weight: 700; fill: #f4e8c8; paint-order: stroke; stroke: #3b2412; stroke-width: 4px; letter-spacing: 2px; }
  .kind { font-size: 13px; font-weight: 800; fill: #f4e8c8; }
  .compass { font-size: 11px; font-weight: 700; fill: #3b2412; stroke: none; }
</style>
</svg>